<?xml version="1.0" encoding="UTF-8"?>
<svg width="60px" height="36px" viewBox="0 0 60 36" version="1.1" xmlns="http://www.w3.org/2000/svg" xmlns:xlink="http://www.w3.org/1999/xlink">
    <!-- Generator: Sketch 43.2 (39069) - http://www.bohemiancoding.com/sketch -->
    <title>B</title>
    <desc>Created with Sketch.</desc>
    <defs>
        <path d="M28.7949791,25.2050209 C28.7949791,26.6945681 28.5104631,28.0920437 27.9414226,29.3974895 C27.3723821,30.7029354 26.5983313,31.8451834 25.6192469,32.8242678 C24.6401625,33.8033522 23.4979145,34.577403 22.1924686,35.1464435 C20.8870228,35.715484 19.4895472,36 18,36 L0,36 L0,0 L18,0 C19.4895472,0 20.8870228,0.284515983 22.1924686,0.853556485 C23.4979145,1.42259699 24.6401625,2.19664782 25.6192469,3.17573222 C26.5983313,4.15481661 27.3723821,5.2970646 27.9414226,6.60251046 C28.5104631,7.90795632 28.7949791,9.30543188 28.7949791,10.7949791 C28.7949791,11.4644385 28.7029298,12.1506241 28.5188285,12.8535565 C28.3347271,13.5564889 28.0753155,14.2343064 27.7405858,14.8870293 C27.4058561,15.5397522 27.0041864,16.1338885 26.5355649,16.6694561 C26.0669433,17.2050236 25.54812,17.6485338 24.9790795,18 C25.5648565,18.3179932 26.0920479,18.7489513 26.5606695,19.292887 C27.029291,19.8368228 27.4309607,20.4351432 27.7656904,21.0878661 C28.1004201,21.740589 28.3556477,22.4225906 28.5313808,23.1338912 C28.7071138,23.8451918 28.7949791,24.5355615 28.7949791,25.2050209 Z M8.20502092,28.7949791 L19,28.7949791 C19.5020946,28.7949791 19.9707091,28.7029298 20.4058577,28.5188285 C20.8410064,28.3347271 21.2217557,28.0794995 21.5481172,27.7531381 C21.8744786,27.4267766 22.1297062,27.0460273 22.3138075,26.6108787 C22.4979089,26.17573 22.5899582,25.7071155 22.5899582,25.2050209 C22.5899582,24.7029264 22.4979089,24.2343118 22.3138075,23.7991632 C22.1297062,23.3640146 21.8744786,22.9832652 21.5481172,22.6569038 C21.2217557,22.3305423 20.8410064,22.0753147 20.4058577,21.8912134 C19.9707091,21.7071121 19.5020946,21.6150628 19,21.6150628 L8.20502092,21.6150628 L8.20502092,28.7949791 Z M8.20502092,14.4100418 L19,14.4100418 C19.5020946,14.4100418 19.9707091,14.3179926 20.4058577,14.1338912 C20.8410064,13.9497899 21.2217557,13.6945623 21.5481172,13.3682008 C21.8744786,13.0418394 22.1297062,12.656906 22.3138075,12.2133891 C22.4979089,11.7698723 22.5899582,11.2970736 22.5899582,10.7949791 C22.5899582,10.2928845 22.4979089,9.82426996 22.3138075,9.38912134 C22.1297062,8.95397272 21.8744786,8.57322339 21.5481172,8.24686192 C21.2217557,7.92050046 20.8410064,7.66527289 20.4058577,7.48117155 C19.9707091,7.29707021 19.5020946,7.20502092 19,7.20502092 L8.20502092,7.20502092 L8.20502092,14.4100418 Z M59.7949791,25.2050209 C59.7949791,26.6945681 59.5104631,28.0920437 58.9414226,29.3974895 C58.3723821,30.7029354 57.5983313,31.8451834 56.6192469,32.8242678 C55.6401625,33.8033522 54.4979145,34.577403 53.1924686,35.1464435 C51.8870228,35.715484 50.4895472,36 49,36 L31,36 L31,0 L49,0 C50.4895472,0 51.8870228,0.284515983 53.1924686,0.853556485 C54.4979145,1.42259699 55.6401625,2.19664782 56.6192469,3.17573222 C57.5983313,4.15481661 58.3723821,5.2970646 58.9414226,6.60251046 C59.5104631,7.90795632 59.7949791,9.30543188 59.7949791,10.7949791 C59.7949791,11.4644385 59.7029298,12.1506241 59.5188285,12.8535565 C59.3347271,13.5564889 59.0753155,14.2343064 58.7405858,14.8870293 C58.4058561,15.5397522 58.0041864,16.1338885 57.5355649,16.6694561 C57.0669433,17.2050236 56.54812,17.6485338 55.9790795,18 C56.5648565,18.3179932 57.0920479,18.7489513 57.5606695,19.292887 C58.029291,19.8368228 58.4309607,20.4351432 58.7656904,21.0878661 C59.1004201,21.740589 59.3556477,22.4225906 59.5313808,23.1338912 C59.7071138,23.8451918 59.7949791,24.5355615 59.7949791,25.2050209 Z M38.2050209,28.7949791 L49,28.7949791 C49.5020946,28.7949791 49.9707091,28.7029298 50.4058577,28.5188285 C50.8410064,28.3347271 51.2217557,28.0794995 51.5481172,27.7531381 C51.8744786,27.4267766 52.1297062,27.0460273 52.3138075,26.6108787 C52.4979089,26.17573 52.5899582,25.7071155 52.5899582,25.2050209 C52.5899582,24.7029264 52.4979089,24.2343118 52.3138075,23.7991632 C52.1297062,23.3640146 51.8744786,22.9832652 51.5481172,22.6569038 C51.2217557,22.3305423 50.8410064,22.0753147 50.4058577,21.8912134 C49.9707091,21.7071121 49.5020946,21.6150628 49,21.6150628 L38.2050209,21.6150628 L38.2050209,28.7949791 Z M38.2050209,14.4100418 L49,14.4100418 C49.5020946,14.4100418 49.9707091,14.3179926 50.4058577,14.1338912 C50.8410064,13.9497899 51.2217557,13.6945623 51.5481172,13.3682008 C51.8744786,13.0418394 52.1297062,12.656906 52.3138075,12.2133891 C52.4979089,11.7698723 52.5899582,11.2970736 52.5899582,10.7949791 C52.5899582,10.2928845 52.4979089,9.82426996 52.3138075,9.38912134 C52.1297062,8.95397272 51.8744786,8.57322339 51.5481172,8.24686192 C51.2217557,7.92050046 50.8410064,7.66527289 50.4058577,7.48117155 C49.9707091,7.29707021 49.5020946,7.20502092 49,7.20502092 L38.2050209,7.20502092 L38.2050209,14.4100418 Z" id="path-1"></path>
        <filter x="-3.4%" y="-2.8%" width="105.1%" height="105.6%" filterUnits="objectBoundingBox" id="filter-2">
            <feGaussianBlur stdDeviation="0.5" in="SourceAlpha" result="shadowBlurInner1"></feGaussianBlur>
            <feOffset dx="0" dy="1" in="shadowBlurInner1" result="shadowOffsetInner1"></feOffset>
            <feComposite in="shadowOffsetInner1" in2="SourceAlpha" operator="arithmetic" k2="-1" k3="1" result="shadowInnerInner1"></feComposite>
            <feColorMatrix values="0 0 0 0 0   0 0 0 0 0   0 0 0 0 0  0 0 0 0.5 0" type="matrix" in="shadowInnerInner1"></feColorMatrix>
        </filter>
    </defs>
    <g id="Page-1" stroke="none" stroke-width="1" fill="none" fill-rule="evenodd">
        <g id="B">
            <use fill-opacity="0.85" fill="#EBF0F5" fill-rule="evenodd" xlink:href="#path-1"></use>
            <use fill="black" fill-opacity="1" filter="url(#filter-2)" xlink:href="#path-1"></use>
        </g>
    </g>
</svg>