<?xml version="1.0" ?><svg id="Layer_1" style="enable-background:new 0 0 512 512;" version="1.1" viewBox="0 0 512 512" xml:space="preserve" xmlns="http://www.w3.org/2000/svg" xmlns:xlink="http://www.w3.org/1999/xlink" fill="white" height="64" width="64"><g id="XMLID_3901_"><polygon id="XMLID_3902_" points="339.7,6 339.7,112.8 448.3,112.8  "/><path d="M131.9,309.6h-19.5v31.8h19.5c5.6,0,9.7-1.5,12.5-4.5c2.8-3,4.2-6.7,4.2-11.3s-1.4-8.4-4.2-11.4   C141.7,311.2,137.5,309.6,131.9,309.6z" id="XMLID_3904_"/><path d="M207.8,309.6h-14.7v66h14.7c7.2,0,12.9-2.4,17.2-7.3c4.2-4.9,6.4-11.2,6.4-18.8v-13.8   c0-7.6-2.1-13.8-6.4-18.7C220.7,312.1,215,309.6,207.8,309.6z" id="XMLID_3978_"/><path d="M367.6,338.6L367.6,338.6c0-49.1-39.8-88.9-88.9-88.9h-215v177.8h215   C327.8,427.5,367.6,387.7,367.6,338.6z M155.3,345.8c-5.6,5.1-13.4,7.6-23.3,7.6h-19.5v34.1h-15v-90h34.5c9.9,0,17.7,2.6,23.3,7.7   s8.4,11.9,8.4,20.2C163.7,334,160.9,340.7,155.3,345.8z M246.3,349.4c0,11.3-3.6,20.4-10.7,27.5c-7.1,7.1-16.4,10.6-27.8,10.6H178   v-90h29.7c11.4,0,20.7,3.6,27.8,10.7c7.1,7.1,10.7,16.3,10.7,27.5V349.4z M277.9,387.6h-15v-90h57.6v12.1h-42.6v27.5h36.3v12.1   h-36.3V387.6z" id="XMLID_4029_"/><path d="M327.7,6.3H81v231.3h197.7c55.6,0,100.9,45.3,100.9,100.9c0,55.6-45.3,100.9-100.9,100.9H81V506h366.6   l0.6-381.2H327.7V6.3z" id="XMLID_4032_"/></g></svg>
