<?xml version="1.0" ?><svg id="Layer_1" style="enable-background:new 0 0 512 512;" version="1.1" viewBox="0 0 512 512" xml:space="preserve" xmlns="http://www.w3.org/2000/svg" xmlns:xlink="http://www.w3.org/1999/xlink"  fill="white" height="64" width="64"><g id="XMLID_3093_"><polygon id="XMLID_3106_" points="339.7,6 339.7,112.8 448.3,112.8  "/><path d="M134,311.1h-17.9v29.2H134c5.1,0,8.9-1.4,11.5-4.1c2.6-2.7,3.9-6.2,3.9-10.4c0-4.2-1.3-7.7-3.9-10.5   C143,312.5,139.1,311.1,134,311.1z" id="XMLID_3118_"/><path d="M367.6,338.6L367.6,338.6c0-49.1-39.8-88.9-88.9-88.9h-215v177.8h215   C327.8,427.5,367.6,387.7,367.6,338.6z M155.4,344.3c-5.2,4.7-12.3,7-21.4,7h-17.9v31.3h-13.8V300H134c9.1,0,16.3,2.4,21.4,7.1   c5.2,4.7,7.7,10.9,7.7,18.6C163.2,333.4,160.6,339.6,155.4,344.3z M240.9,382.6h-13.8l-36.6-59.5l-0.3,0.1v59.4h-13.8V300h13.8   l36.6,59.5l0.3-0.1V300h13.8V382.6z M255.8,349.9v-17.2c0-10,3-18.1,9.1-24.4c6.1-6.3,13.9-9.4,23.5-9.4c9.6,0,17.1,2.4,22.5,7.3   c5.4,4.8,8,11.2,7.8,19l-0.2,0.3h-13.1c0-4.7-1.4-8.4-4.3-11.2c-2.9-2.8-7-4.3-12.5-4.3c-5.7,0-10.3,2.1-13.8,6.4   c-3.5,4.3-5.2,9.7-5.2,16.3v17.4c0,6.7,1.8,12.1,5.5,16.4c3.7,4.3,8.4,6.4,14.3,6.4c4.4,0,7.9-0.5,10.5-1.5c2.6-1,4.5-2.2,5.8-3.7   v-17.1h-17.3v-10.3h31.1v31.2c-2.3,3.2-5.9,6.1-10.9,8.6c-5,2.5-11.4,3.8-19.3,3.8c-9.8,0-17.8-3.1-24.1-9.4   C258.9,368.1,255.8,359.9,255.8,349.9z" id="XMLID_4010_"/><path d="M327.7,6.3H81v231.3h197.7c55.6,0,100.9,45.3,100.9,100.9s-45.3,100.9-100.9,100.9H81V506h366.6   l0.6-381.2H327.7V6.3z" id="XMLID_4013_"/></g></svg>
