<?xml version="1.0" standalone="no"?>
<!DOCTYPE svg PUBLIC "-//W3C//DTD SVG 20010904//EN"
 "http://www.w3.org/TR/2001/REC-SVG-20010904/DTD/svg10.dtd">
<svg version="1.0" xmlns="http://www.w3.org/2000/svg"
 width="823.000000pt" height="823.000000pt" viewBox="0 0 823.000000 823.000000"
 preserveAspectRatio="xMidYMid meet">
<metadata>
Created by potrace 1.11, written by Peter Selinger 2001-2013
</metadata>
<g transform="translate(0.000000,823.000000) scale(0.100000,-0.100000)"
fill="#000000" stroke="none">
<path d="M57 8221 l61 -6 -3 -67 c-3 -60 -29 -148 -45 -148 -3 0 -14 6 -23 13
-13 9 -15 19 -9 42 9 32 5 65 -7 65 -24 0 -30 -181 -31 -929 0 -774 0 -784 20
-827 18 -36 19 -47 9 -65 -6 -13 -14 -88 -18 -173 -9 -218 -10 -2924 -1 -2784
4 65 10 124 13 132 3 7 21 15 40 18 l34 4 6 -83 c3 -45 2 -95 -2 -110 -5 -16
-11 -82 -15 -148 -4 -66 -11 -145 -16 -175 -5 -30 -10 -94 -12 -143 -1 -48 -6
-93 -10 -100 -5 -7 -8 1 -8 20 0 40 -20 55 -21 16 0 -24 -1 -25 -9 -8 -4 11
-8 -452 -7 -1030 0 -577 3 -1007 7 -955 l6 95 5 -80 c3 -44 6 31 5 167 0 136
-4 242 -8 235 -4 -6 -7 17 -7 53 1 55 3 59 9 30 7 -33 7 -33 9 -6 1 25 4 27
25 22 21 -5 25 -2 28 21 2 22 11 29 50 42 26 9 50 19 54 23 4 5 20 8 35 8 15
0 41 8 57 17 26 15 34 16 55 4 22 -12 32 -11 67 3 22 9 56 16 76 16 19 0 45 5
56 11 13 7 23 8 27 1 3 -5 38 -13 76 -17 39 -3 81 -10 95 -15 14 -5 43 -11 65
-15 37 -6 38 -8 20 -21 -18 -13 -18 -14 8 -14 15 0 27 -5 27 -10 0 -6 -30 -9
-79 -7 -49 3 -87 0 -101 -8 -13 -7 -42 -10 -68 -7 l-44 5 6 -31 c5 -19 3 -33
-5 -38 -8 -4 -9 -3 -5 4 4 7 1 12 -7 12 -18 0 -21 -68 -5 -87 8 -10 6 -13 -6
-13 -12 0 -15 -6 -10 -25 4 -16 2 -25 -5 -25 -14 0 -20 15 -24 57 -1 17 -6 33
-12 35 -14 4 -19 -62 -6 -75 6 -6 11 -20 11 -30 0 -13 5 -17 15 -13 11 4 15
-2 15 -22 0 -15 -4 -33 -9 -41 -10 -16 -4 -41 10 -41 5 0 9 9 9 19 0 11 5 23
10 26 6 3 10 15 10 26 0 10 4 19 9 19 5 0 7 9 4 20 -4 13 0 20 10 20 26 0 26
-35 0 -60 -35 -34 -21 -36 17 -2 23 22 28 31 18 36 -7 3 -4 5 8 2 19 -3 21 1
20 50 0 30 -4 54 -8 54 -4 0 -8 5 -8 12 0 6 7 4 18 -5 10 -10 25 -17 33 -17 9
-1 7 -7 -8 -19 -12 -10 -19 -22 -15 -26 4 -3 7 -12 7 -18 0 -7 7 -12 15 -12 9
0 14 7 12 18 -2 13 3 17 20 16 45 -4 79 1 73 11 -3 6 -15 10 -26 10 -16 0 -19
7 -19 49 0 28 4 52 9 56 6 3 8 -8 4 -27 -4 -26 0 -38 18 -53 12 -11 19 -15 16
-8 -4 6 -3 15 3 18 8 5 8 11 1 19 -8 9 -7 18 2 30 12 16 14 16 31 -3 19 -21 9
-30 -11 -10 -12 12 -15 -23 -6 -70 3 -20 6 -22 14 -10 5 7 9 24 9 35 0 28 23
37 46 19 17 -12 18 -17 5 -62 -8 -26 -16 -62 -20 -79 -8 -39 -72 -144 -88
-144 -7 0 -13 -4 -13 -10 0 -15 9 -12 41 11 16 11 29 27 29 35 0 8 4 14 9 14
9 0 81 141 81 160 0 6 7 18 15 26 8 9 15 24 15 35 0 11 6 32 14 47 7 15 19 56
25 92 15 78 40 158 52 166 5 3 9 30 9 60 0 31 5 65 12 77 7 12 15 46 18 76 6
60 19 72 47 42 29 -32 37 -43 61 -93 19 -40 23 -64 25 -176 1 -87 5 -125 11
-114 5 9 9 58 8 109 -1 84 1 93 17 93 11 0 30 6 44 13 24 13 24 14 6 25 -15
10 -19 9 -19 -2 0 -16 -27 -29 -41 -20 -5 3 -9 23 -9 45 0 21 -3 39 -8 39 -4
0 -18 20 -32 45 -14 25 -28 45 -32 45 -5 0 -8 6 -8 14 0 7 -6 19 -14 25 -14
12 -10 51 5 51 5 0 9 4 9 9 0 17 103 161 115 161 7 0 26 -3 43 -6 26 -5 31
-12 34 -38 3 -30 4 -31 58 -32 30 -1 81 -11 112 -23 31 -11 90 -26 130 -31 84
-12 187 -42 221 -65 24 -15 47 -54 47 -79 0 -11 -92 -116 -103 -116 -9 0 -87
-80 -87 -90 0 -5 -3 -10 -8 -10 -4 0 -19 -10 -32 -22 -39 -35 -88 -68 -100
-68 -6 0 -13 -7 -16 -15 -4 -8 -10 -15 -14 -15 -8 0 -60 -42 -102 -83 -10 -9
-23 -17 -28 -17 -6 0 -13 -7 -16 -15 -4 -8 -10 -15 -14 -15 -10 0 -500 -487
-500 -497 0 -4 -39 -39 -88 -78 -48 -38 -103 -86 -123 -105 -19 -19 -68 -64
-109 -100 -40 -36 -110 -103 -154 -149 -223 -232 -293 -289 -363 -293 -42 -3
-43 -3 -43 -40 l0 -38 4115 0 4115 0 0 40 0 41 -35 -6 c-19 -3 -51 -7 -70 -10
l-35 -6 -2 93 c-2 51 -2 114 -1 141 1 26 -2 47 -7 47 -17 0 -11 37 6 44 20 8
54 -20 54 -43 0 -9 5 -23 11 -31 8 -11 9 -5 6 25 -5 45 8 226 18 268 4 15 13
27 21 27 8 0 14 9 14 19 0 11 5 23 10 26 7 4 10 881 9 2603 -1 1428 -3 2590
-5 2582 -1 -8 -6 -50 -9 -93 -5 -62 -12 -83 -31 -105 -13 -15 -24 -21 -24 -14
0 10 -9 8 -32 -6 -18 -11 -58 -22 -88 -25 -30 -3 -79 -14 -108 -25 l-53 -20 7
20 c4 15 2 19 -7 16 -8 -3 -15 -14 -17 -25 -5 -33 -30 -36 -49 -6 -14 20 -17
47 -16 132 1 58 2 140 2 182 1 73 26 158 51 174 6 3 10 15 10 26 0 10 6 19 14
19 14 0 31 29 22 38 -11 11 -90 6 -94 -6 -2 -6 -10 -12 -17 -12 -21 0 -106
-28 -137 -45 -14 -8 -38 -15 -51 -15 -14 0 -29 -5 -32 -10 -4 -6 -14 -8 -24
-5 -17 5 -25 -6 -63 -87 -7 -16 -18 -28 -25 -28 -7 0 -27 -6 -45 -14 -72 -32
-82 -34 -198 -45 -47 -4 -106 -14 -132 -21 l-48 -14 0 -53 c0 -69 -30 -130
-68 -139 -15 -4 -30 -12 -34 -17 -8 -14 -104 -13 -121 1 -6 5 -26 13 -43 16
-27 6 -33 13 -41 49 l-11 42 -1 -37 c0 -21 -6 -38 -12 -38 -20 0 -54 23 -84
58 -16 20 -38 44 -47 54 -10 10 -18 27 -18 37 0 14 -8 21 -27 23 -16 2 -32 12
-39 25 -8 17 -13 20 -22 11 -19 -19 -14 -3 6 18 20 22 38 31 147 72 86 32 123
41 197 45 52 2 66 10 50 30 -7 8 -7 18 -2 27 6 8 10 18 10 23 0 12 -61 8 -122
-9 -59 -17 -86 -12 -58 10 20 15 43 56 36 64 -3 3 -6 0 -6 -7 0 -6 -10 -16
-22 -21 -13 -6 -32 -16 -43 -22 -11 -7 -44 -28 -75 -47 -30 -19 -60 -41 -67
-51 -8 -11 -21 -15 -42 -12 -25 3 -32 10 -37 38 -6 34 -19 44 -26 22 -9 -25
-12 68 -9 218 0 17 5 43 10 56 6 17 6 29 -1 36 -6 6 -6 12 1 16 6 4 11 18 11
32 0 14 7 27 15 30 8 4 15 14 15 23 0 10 7 26 15 37 18 24 20 86 3 78 -7 -2
-21 -21 -30 -42 -23 -49 -87 -118 -117 -127 -14 -4 -34 -16 -45 -26 -11 -11
-25 -18 -31 -15 -7 2 -20 -7 -30 -20 -10 -13 -21 -24 -24 -24 -9 1 -81 67 -81
74 0 14 -115 116 -130 116 -5 0 -10 4 -10 8 0 8 -46 39 -185 128 -69 44 -167
94 -184 94 -6 0 -11 5 -11 10 0 6 -8 10 -18 10 -10 0 -27 7 -38 15 -10 8 -26
15 -34 15 -8 0 -26 9 -40 20 -14 11 -41 20 -61 20 -52 0 -73 19 -64 58 3 18
11 32 16 32 5 0 9 7 9 14 0 19 43 100 75 142 26 34 32 54 15 54 -5 0 -10 11
-10 25 0 16 -6 25 -16 25 -8 0 -22 7 -30 15 -9 8 -26 15 -40 15 -13 0 -24 4
-24 10 0 5 -17 12 -37 16 -21 4 -50 15 -65 26 -15 10 -33 18 -40 17 -28 -3
-36 2 -31 21 3 11 0 20 -6 20 -6 0 -11 18 -11 42 0 40 4 45 135 172 229 224
264 256 275 256 5 0 10 7 10 15 0 17 -25 21 -35 5 -3 -5 -12 -7 -20 -3 -17 6
-45 -11 -96 -58 -31 -29 -85 -76 -125 -108 -6 -5 -44 -34 -84 -65 -72 -56
-153 -147 -165 -187 -4 -10 -11 -19 -16 -19 -5 0 -9 -4 -9 -9 0 -6 -14 -25
-30 -43 -17 -18 -30 -38 -30 -45 0 -16 -149 -165 -180 -179 -79 -37 -103 -44
-149 -44 -49 0 -51 1 -51 28 0 20 13 43 41 73 23 24 69 76 103 114 33 39 63
72 66 75 3 3 30 37 59 75 30 39 75 88 99 110 25 22 61 55 81 72 20 18 42 33
49 33 6 0 12 4 12 9 0 5 16 19 35 32 20 13 62 60 95 104 33 44 66 88 75 98 8
9 15 22 15 27 0 6 7 13 15 16 8 4 15 10 15 16 0 5 7 16 15 25 29 29 8 24 -43
-10 -60 -41 -77 -55 -105 -86 -12 -13 -33 -34 -46 -45 -14 -12 -72 -67 -130
-124 -58 -57 -117 -110 -131 -118 -14 -9 -36 -30 -50 -49 -14 -18 -30 -30 -37
-28 -18 7 -16 21 5 26 9 3 3 5 -14 6 -23 1 -33 -4 -37 -18 -3 -14 -1 -18 9
-14 8 3 14 0 14 -6 0 -11 -12 -15 -42 -12 -20 3 -25 -25 -6 -32 10 -4 10 -6 1
-6 -7 -1 -13 -8 -13 -16 0 -8 -4 -15 -10 -15 -14 0 -12 27 3 33 7 3 5 6 -5 6
-22 1 -24 17 -3 25 8 3 15 17 15 31 0 14 4 25 9 25 5 0 16 18 24 39 9 22 21
42 27 46 5 3 10 13 10 20 0 8 21 42 46 75 25 34 43 64 40 67 -3 4 -6 1 -6 -5
0 -7 -6 -12 -12 -12 -7 0 -26 -13 -43 -28 -65 -60 -87 -73 -102 -60 -11 9 -15
7 -20 -10 -6 -24 -14 -27 -28 -13 -6 5 -82 12 -170 15 -88 3 -162 5 -164 6 -2
0 -1 15 2 34 3 18 1 38 -4 43 -6 6 -2 17 9 29 10 10 25 30 35 43 23 35 151
146 221 192 l58 39 -43 0 c-24 0 -62 -9 -84 -19 l-41 -18 -2 23 c-2 25 13 33
21 12 3 -7 6 -3 6 10 1 16 -5 22 -19 22 -32 0 -24 30 8 31 16 0 21 3 12 6 -8
4 -20 13 -27 22 -10 13 -9 18 3 28 11 8 12 13 3 18 -6 4 -14 3 -18 -3 -4 -7
-19 -7 -41 -2 -36 8 -34 9 38 16 31 3 42 0 42 -11 0 -7 -4 -17 -10 -20 -15 -9
-12 -25 5 -25 8 0 15 5 15 11 0 7 9 9 21 6 15 -4 19 -2 15 9 -3 9 -2 12 5 9 5
-4 27 1 47 11 35 17 122 18 1777 17 957 -1 1765 2 1795 6 30 5 -854 9 -1965
10 l-2020 1 3 -42 c1 -24 5 -108 9 -188 5 -127 3 -147 -11 -159 -9 -7 -16 -20
-16 -28 0 -12 -34 -68 -51 -83 -9 -9 -47 -124 -54 -165 -14 -81 -44 -167 -66
-185 -3 -3 -14 -22 -24 -42 -9 -21 -21 -38 -26 -38 -5 0 -9 -6 -9 -13 0 -8 -8
-22 -19 -31 -18 -16 -18 -15 -14 11 5 26 1 24 -44 -24 -28 -29 -55 -53 -62
-53 -6 0 -22 -6 -34 -14 -12 -8 -80 -21 -152 -30 -71 -9 -159 -23 -195 -32
-99 -22 -104 -21 -97 24 3 20 9 76 13 125 4 48 11 87 15 87 5 0 9 5 9 11 0 5
11 34 24 63 24 52 66 96 91 96 15 0 50 33 95 90 31 39 82 98 131 150 52 56
174 230 160 230 -5 0 -14 -6 -20 -14 -7 -8 -23 -17 -36 -20 -14 -4 -25 -11
-25 -16 0 -6 -4 -10 -8 -10 -12 0 -122 -109 -122 -121 0 -5 -7 -9 -15 -9 -8 0
-15 -7 -15 -15 0 -9 -6 -12 -17 -8 -10 4 -14 2 -10 -4 8 -13 -27 -46 -37 -36
-4 5 -6 1 -4 -7 2 -10 -4 -15 -19 -14 -12 0 -20 -3 -17 -8 3 -4 -1 -8 -10 -8
-8 0 -17 6 -19 13 -3 6 -6 1 -6 -12 -1 -16 -4 -22 -11 -15 -13 13 -1 54 17 54
8 0 13 6 10 13 -2 6 -10 11 -16 9 -21 -4 -22 23 -1 63 11 21 20 45 20 52 0 8
7 25 16 39 19 28 12 43 -11 24 -14 -12 -15 -10 -9 16 4 16 16 40 26 53 17 22
17 26 3 33 -10 6 -15 25 -16 61 l-1 52 -26 -83 c-23 -72 -35 -93 -87 -148
-102 -110 -125 -137 -125 -145 0 -13 -81 -49 -108 -49 -36 0 -217 -52 -257
-74 -38 -20 -150 -49 -238 -60 -15 -2 -30 1 -34 7 -4 6 2 8 15 5 25 -7 28 -1
9 16 -7 6 -11 10 -9 9 2 -1 11 6 21 15 148 142 215 201 283 248 29 20 61 44
70 52 21 17 25 40 6 25 -7 -6 -33 -13 -58 -16 -24 -3 -46 -11 -48 -16 -2 -6
-10 -11 -17 -11 -7 0 -15 -3 -17 -8 -1 -4 -23 -23 -48 -42 -25 -18 -60 -51
-79 -72 -19 -21 -40 -38 -47 -38 -12 0 -40 38 -32 44 2 2 11 8 22 13 12 7 15
13 7 17 -6 4 -11 2 -11 -3 0 -6 -4 -11 -10 -11 -5 0 -10 8 -10 17 0 14 -3 14
-12 5 -10 -10 -10 -15 1 -21 9 -6 10 -11 2 -15 -6 -4 -11 -16 -11 -27 0 -30
-24 -18 -28 14 -2 18 -8 24 -18 20 -10 -4 -17 2 -21 16 -7 28 -23 17 -24 -17
-1 -17 -3 -21 -6 -9 -2 9 -9 17 -14 17 -6 0 -10 10 -9 23 4 43 0 55 -17 53
-28 -2 -26 28 6 132 16 53 33 111 36 129 3 17 12 36 19 42 8 7 253 10 744 9
403 -1 735 2 739 5 3 4 -351 6 -788 5 -437 0 -780 -3 -762 -5 29 -4 31 -6 23
-33 -5 -16 -15 -42 -23 -57 -30 -60 -47 -99 -52 -128 -7 -32 -10 -41 -45 -120
l-21 -50 6 43 c5 39 4 42 -10 29 -8 -9 -15 -20 -15 -26 0 -12 -40 -35 -41 -24
0 4 -8 -18 -19 -50 -10 -32 -22 -63 -28 -70 -5 -6 -14 -25 -19 -42 -20 -58
-66 -155 -75 -155 -4 0 -8 -5 -8 -11 0 -10 -37 -93 -48 -109 -2 -2 -7 2 -13
10 -8 13 -11 13 -20 -2 -5 -10 -16 -18 -23 -18 -8 0 -17 -8 -21 -17 -6 -15 -9
-13 -16 12 -13 44 -29 327 -29 510 0 88 -5 189 -10 225 -5 35 -8 65 -7 66 1 2
108 6 237 10 129 3 237 8 239 10 2 2 -199 4 -448 4 -376 0 -450 -2 -439 -13
17 -18 19 -520 1 -587 -39 -153 -53 -269 -55 -470 -1 -151 2 -216 12 -245 7
-22 14 -80 14 -130 1 -83 -1 -90 -19 -93 -26 -4 -95 57 -95 83 0 11 -6 52 -14
90 -8 39 -17 116 -19 172 -6 103 -23 152 -54 153 -21 0 -58 140 -73 275 -5 44
-16 123 -24 175 -9 54 -18 179 -21 289 -2 106 -6 195 -8 198 -3 2 -8 -32 -12
-77 -7 -80 -21 -110 -50 -110 -8 0 -28 -13 -45 -30 -16 -16 -36 -27 -43 -24
-7 2 -27 -2 -43 -11 -16 -8 -35 -15 -42 -15 -7 0 -10 -5 -7 -11 4 -5 0 -18 -9
-28 -15 -17 -15 -19 -1 -24 9 -4 15 -19 15 -37 0 -21 5 -30 16 -30 10 0 14 -6
10 -15 -3 -9 0 -15 10 -15 8 0 19 -11 24 -25 5 -14 14 -25 20 -25 5 0 10 -4
10 -9 0 -6 15 -32 32 -58 113 -166 166 -314 173 -483 2 -55 9 -109 15 -119 5
-11 10 -65 10 -121 l0 -102 -47 7 c-73 11 -147 71 -190 154 -26 49 -27 53 -13
103 11 39 52 68 97 68 12 0 23 5 23 10 0 6 8 10 18 10 14 0 14 2 3 9 -9 6 -22
6 -35 -1 -10 -6 -42 -8 -70 -5 -36 3 -57 1 -71 -9 -12 -9 -46 -14 -99 -14
-119 0 -126 4 -126 55 0 24 3 45 8 47 9 4 47 58 55 81 3 9 11 17 17 17 5 0 10
5 10 11 0 10 39 67 72 103 9 10 22 31 28 47 7 16 16 29 21 29 5 0 9 5 9 12 0
6 7 20 17 30 15 17 15 18 -4 18 -11 0 -29 -11 -39 -25 -23 -31 -37 -32 -30 -2
3 12 3 16 0 10 -3 -7 -12 -13 -21 -13 -8 0 -22 -8 -31 -17 -31 -30 -27 12 7
78 24 47 28 63 19 73 -10 10 -17 4 -36 -33 -35 -69 -45 -84 -70 -111 -12 -14
-25 -36 -29 -50 -7 -30 -41 -70 -60 -70 -7 0 -13 -4 -13 -9 0 -14 -50 -23 -64
-12 -9 8 -15 2 -24 -22 -13 -37 -7 -67 30 -137 21 -42 23 -57 23 -200 -1 -85
-4 -171 -8 -191 l-7 -37 -89 -16 c-160 -29 -182 -19 -112 51 31 30 32 33 13
33 -17 0 -22 6 -22 26 0 20 -4 24 -19 19 -13 -4 -26 4 -45 29 -14 19 -26 39
-26 45 0 6 -4 11 -9 11 -14 0 -66 51 -80 77 -6 12 -11 33 -11 46 0 29 -27 44
-33 19 -4 -15 -5 -14 -6 2 -1 12 -6 16 -17 12 -8 -3 -13 -2 -10 2 7 12 79 45
176 82 47 17 108 40 135 51 l50 20 -55 -6 c-30 -3 -68 -10 -85 -15 -16 -5 -55
-16 -85 -25 -126 -35 -163 -51 -186 -77 -12 -16 -30 -28 -38 -28 -9 0 -16 -7
-16 -15 0 -8 -4 -15 -9 -15 -8 0 -19 78 -27 193 -3 51 -2 57 16 57 10 0 22 5
25 11 4 6 -4 9 -22 7 -26 -3 -28 0 -31 37 -2 22 -7 44 -12 50 -14 18 -23 85
-11 85 6 0 11 -4 11 -9 0 -5 11 -11 25 -13 30 -6 34 8 5 17 -16 5 -20 15 -20
51 0 32 -4 44 -15 44 -8 0 -15 5 -15 10 0 6 7 10 15 10 22 0 18 14 -8 25 -18
8 -21 16 -18 50 3 38 11 64 30 95 5 8 23 62 41 120 17 58 40 125 50 150 11 25
22 60 25 77 4 18 12 36 18 40 6 4 299 8 650 9 352 2 642 5 645 8 3 3 -334 5
-749 4 -415 -1 -726 -4 -692 -7z m99 -10 c-4 -5 -1 -11 5 -13 8 -3 8 -10 -2
-26 -14 -23 -29 -29 -29 -12 0 6 4 10 10 10 6 0 6 9 0 25 -8 20 -6 25 6 25 8
0 13 -4 10 -9z m4134 -1 l-35 -7 38 -2 c20 0 37 -6 37 -12 0 -5 -8 -9 -17 -8
-10 1 -28 1 -41 0 -21 -1 -22 -2 -8 -17 9 -8 16 -20 16 -25 0 -13 -18 -11 -22
2 -3 8 -10 6 -21 -5 -13 -14 -18 -15 -22 -4 -8 23 1 73 13 71 7 -2 12 2 12 7
0 6 19 9 43 9 l42 -2 -35 -7z m67 4 c-3 -3 -12 -4 -19 -1 -8 3 -5 6 6 6 11 1
17 -2 13 -5z m56 -1 c-7 -2 -19 -2 -25 0 -7 3 -2 5 12 5 14 0 19 -2 13 -5z
m-2566 -45 c-3 -8 -6 -5 -6 6 -1 11 2 17 5 13 3 -3 4 -12 1 -19z m2463 -8 c0
-5 -4 -10 -10 -10 -5 0 -10 5 -10 10 0 6 5 10 10 10 6 0 10 -4 10 -10z m50 0
c0 -5 -4 -10 -10 -10 -5 0 -10 5 -10 10 0 6 5 10 10 10 6 0 10 -4 10 -10z m40
0 c0 -5 -2 -10 -4 -10 -3 0 -8 5 -11 10 -3 6 -1 10 4 10 6 0 11 -4 11 -10z
m50 0 c0 -5 -4 -10 -10 -10 -5 0 -10 5 -10 10 0 6 5 10 10 10 6 0 10 -4 10
-10z m-3 -92 c-3 -8 -6 -5 -6 6 -1 11 2 17 5 13 3 -3 4 -12 1 -19z m-4406
-123 c5 4 9 1 9 -4 0 -6 -4 -11 -9 -11 -5 0 -12 -8 -14 -17 -3 -10 -5 0 -5 22
0 22 2 32 5 22 2 -9 9 -15 14 -12z m2576 -207 c-3 -7 -5 -2 -5 12 0 14 2 19 5
13 2 -7 2 -19 0 -25z m1695 -6 c-7 -2 -12 -10 -12 -18 0 -15 -12 -19 -23 -7
-10 10 24 44 36 36 8 -5 7 -8 -1 -11z m-1082 -57 c0 -33 -48 -125 -66 -125 -7
0 -17 -6 -21 -14 -17 -30 -94 -108 -145 -148 -29 -23 -59 -49 -66 -57 -30 -37
-102 -149 -102 -160 0 -6 -3 -11 -7 -11 -5 0 -21 -23 -38 -50 -16 -27 -33 -50
-37 -50 -5 0 -8 -8 -8 -17 1 -15 4 -13 21 7 58 70 253 270 264 270 7 0 26 7
41 15 16 8 34 15 40 15 16 0 44 -45 44 -71 0 -23 -81 -109 -185 -196 -28 -23
-61 -51 -74 -62 -13 -12 -27 -21 -30 -21 -3 0 -23 -15 -43 -33 -20 -17 -49
-41 -64 -52 -15 -11 -32 -25 -38 -31 -6 -5 -19 -13 -29 -17 -16 -6 -18 -1 -16
56 1 34 -4 75 -10 90 -20 52 -14 144 15 201 39 77 64 173 64 248 l0 68 40 20
c21 11 48 20 58 20 11 0 45 11 75 26 31 14 83 31 116 37 34 7 66 18 73 25 7 7
21 12 33 12 11 0 31 7 45 14 38 21 50 19 50 -9z m-3193 -27 c-3 -8 -6 -5 -6 6
-1 11 2 17 5 13 3 -3 4 -12 1 -19z m4582 -44 l63 -6 -7 -31 c-4 -18 -11 -48
-15 -67 -4 -19 -18 -60 -30 -90 -12 -30 -23 -72 -25 -92 -2 -20 -12 -47 -24
-59 -12 -13 -29 -40 -38 -61 -9 -21 -20 -38 -24 -38 -4 0 -13 -16 -19 -35 -6
-19 -17 -35 -23 -36 -36 -3 -208 3 -245 8 l-44 6 7 91 c4 50 11 96 15 101 4 6
3 21 -1 35 l-7 25 -1 -27 c-1 -16 -5 -28 -10 -28 -4 0 -11 -35 -14 -77 -9
-102 -15 -123 -38 -123 -11 0 -19 5 -19 10 0 6 7 10 17 10 31 0 7 9 -40 14
-38 5 -47 3 -47 -9 0 -18 -36 -20 -46 -3 -5 7 -3 8 5 3 7 -4 23 2 37 16 20 19
27 21 33 10 5 -7 14 -10 21 -6 17 10 -22 36 -51 33 -12 -2 -24 2 -26 8 -2 7 4
11 14 10 13 -1 19 7 21 29 2 16 8 32 12 35 5 3 5 12 -1 20 -8 13 -10 13 -19 0
-5 -8 -10 -10 -10 -4 0 6 9 23 20 37 11 14 20 30 20 36 0 6 3 11 8 11 7 0 36
54 96 181 l35 75 168 -3 c92 -2 197 -6 232 -9z m-3713 -161 c-10 -10 -19 5
-10 18 6 11 8 11 12 0 2 -7 1 -15 -2 -18z m3780 -41 c-12 -11 -18 7 -10 30 l8
23 4 -23 c2 -13 1 -26 -2 -30z m-14 -30 c-7 -2 -12 -10 -12 -17 0 -7 -7 -15
-15 -19 -13 -5 -13 -2 0 25 10 18 20 27 27 22 9 -5 9 -8 0 -11z m-2741 -38 c8
-8 29 -14 46 -14 38 0 48 -21 62 -121 6 -42 13 -83 17 -92 5 -13 0 -17 -21
-17 -47 0 -119 22 -153 47 -18 14 -36 22 -40 18 -4 -4 -1 -10 6 -12 7 -3 22
-14 32 -26 21 -22 68 -42 136 -58 72 -17 84 -36 86 -142 4 -144 0 -191 -17
-203 -8 -6 -15 -18 -15 -27 0 -9 -9 -21 -20 -27 -11 -6 -20 -17 -20 -25 0 -8
-6 -18 -13 -22 -6 -4 -18 -20 -26 -35 -8 -15 -23 -37 -33 -48 -11 -11 -16 -25
-12 -31 4 -7 -1 -9 -15 -4 -13 4 -21 2 -21 -5 0 -7 -8 -10 -20 -7 -15 4 -20 0
-20 -15 0 -17 -6 -13 -30 18 -16 22 -36 46 -44 54 -8 8 -17 27 -21 43 -8 29
-25 28 -25 -2 0 -10 18 -52 40 -94 22 -41 40 -79 40 -84 0 -4 -20 -21 -45 -36
-62 -40 -64 -47 -11 -45 32 1 46 6 46 15 0 8 5 11 10 8 16 -10 12 -30 -14 -60
-23 -26 -25 -27 -41 -11 -10 9 -20 15 -22 12 -8 -8 8 -46 18 -41 5 3 6 -1 3
-10 -4 -9 -12 -14 -18 -12 -14 5 -45 120 -46 169 0 20 -5 60 -11 89 -10 46 -9
53 6 62 14 8 15 11 4 18 -11 7 -10 9 3 9 15 0 17 10 12 88 -5 73 -3 91 10 101
9 8 16 24 16 37 0 14 4 32 10 42 9 17 36 143 51 237 20 128 38 223 49 253 10
27 16 32 34 26 11 -3 28 -13 37 -20z m2089 -113 c-10 -20 -30 -29 -30 -14 0
10 33 44 37 39 3 -2 0 -14 -7 -25z m-3971 -146 c1 6 8 -5 16 -24 9 -19 14 -61
14 -100 l-1 -66 -8 54 c-5 30 -6 61 -2 69 3 10 1 13 -6 8 -7 -4 -12 -20 -12
-37 0 -16 -4 -29 -9 -29 -6 0 -12 -19 -14 -42 -2 -24 -4 -7 -3 37 1 58 4 79
14 78 6 -2 12 5 12 14 0 13 -3 14 -12 5 -19 -19 -30 -14 -18 8 6 10 10 23 9
27 -4 25 4 34 11 13 4 -14 9 -20 9 -15z m191 31 c0 -3 -4 -8 -10 -11 -5 -3
-10 -1 -10 4 0 6 5 11 10 11 6 0 10 -2 10 -4z m3845 -56 c88 -11 232 -24 320
-30 167 -10 240 -20 340 -44 154 -37 415 -114 530 -156 28 -10 75 -26 105 -36
30 -9 64 -21 75 -25 11 -5 63 -25 115 -45 52 -20 102 -44 110 -54 8 -10 27
-20 43 -24 15 -3 27 -11 27 -16 0 -6 7 -10 15 -10 8 0 15 -4 15 -9 0 -5 13
-12 29 -16 16 -3 32 -13 35 -21 3 -8 11 -14 18 -14 7 0 30 -16 51 -35 21 -19
40 -35 42 -35 15 0 205 -189 205 -205 0 -5 10 -18 50 -62 11 -13 20 -26 20
-29 0 -3 14 -26 30 -51 17 -24 30 -46 30 -49 0 -12 36 -81 67 -131 18 -29 33
-58 33 -65 0 -8 6 -22 14 -33 18 -27 76 -195 76 -222 0 -11 7 -38 16 -59 9
-20 19 -58 24 -83 20 -118 100 -351 130 -381 21 -20 86 -180 94 -230 3 -19 10
-55 15 -80 22 -99 4 -257 -35 -317 -14 -22 -19 -53 -8 -53 18 0 58 32 124 101
78 81 107 99 165 99 28 0 36 -4 41 -25 6 -26 -36 -93 -90 -144 -14 -14 -26
-29 -26 -34 0 -5 -13 -32 -30 -59 -16 -26 -30 -56 -30 -66 0 -10 -3 -22 -7
-26 -7 -7 -34 -81 -69 -188 -8 -27 -19 -48 -25 -48 -6 0 -8 9 -4 20 7 24 -7
26 -25 5 -7 -8 -24 -15 -38 -15 l-25 0 6 133 c3 72 3 152 -1 177 -6 39 -12 48
-42 62 -19 10 -51 18 -71 18 -24 0 -39 5 -43 15 -5 15 13 20 57 16 21 -3 23
15 1 23 -31 12 -140 6 -234 -13 -52 -11 -122 -25 -155 -32 -33 -6 -81 -20
-107 -30 -26 -11 -54 -19 -63 -19 -8 0 -18 -7 -21 -15 -5 -12 -27 -15 -115
-15 -59 0 -130 5 -156 10 -26 6 -82 14 -123 19 -41 5 -111 16 -155 24 -44 9
-123 23 -175 32 -52 9 -133 22 -180 30 -47 8 -130 22 -185 30 -208 32 -292 46
-365 62 -63 13 -122 23 -210 37 -8 2 -42 6 -75 10 -33 5 -85 14 -115 21 -30 8
-82 16 -115 19 -92 7 -136 18 -142 32 -3 8 -9 14 -15 14 -5 0 -6 -4 -3 -10 8
-13 -41 -13 -66 0 -10 6 -19 16 -19 21 0 13 171 4 255 -12 28 -5 91 -13 140
-18 50 -5 115 -14 145 -20 89 -16 373 -62 505 -80 39 -5 95 -14 125 -20 30 -6
134 -24 230 -41 96 -17 211 -37 255 -45 92 -17 215 -20 215 -5 0 6 -9 10 -21
10 -11 0 -17 5 -14 10 4 6 10 8 14 6 4 -3 13 -1 21 4 11 7 7 10 -13 15 -17 5
-27 14 -27 26 0 16 -7 19 -52 18 -34 -1 -45 -3 -31 -7 17 -5 20 -11 13 -22 -9
-13 -11 -13 -21 0 -8 11 -12 12 -16 3 -7 -18 -23 -16 -23 2 0 12 -18 15 -97
15 -114 0 -143 6 -143 29 -1 13 -3 13 -16 -4 -15 -19 -16 -19 -29 -2 -8 12
-15 14 -20 8 -3 -6 -14 -11 -23 -11 -13 0 -13 2 4 16 13 11 15 17 7 20 -7 3
-13 14 -13 25 0 11 -9 21 -24 25 -16 4 -23 11 -19 20 5 13 0 15 -51 18 -11 1
-21 8 -24 16 -5 13 -3 13 11 1 22 -17 22 -7 1 14 -9 9 -14 19 -10 22 3 4 127
7 274 7 155 1 270 5 274 10 4 6 3 17 -1 25 -14 28 -21 81 -11 81 6 0 10 -4 10
-10 0 -5 7 -10 16 -10 10 0 14 6 10 15 -3 8 -3 15 0 15 2 0 9 -10 13 -22 8
-22 9 -22 17 -4 4 10 2 27 -5 37 -9 16 -8 19 5 19 11 0 14 5 10 16 -3 9 -6 42
-6 75 0 53 -2 59 -20 59 -18 0 -20 5 -16 38 3 20 5 53 5 72 1 46 19 27 23 -25
2 -31 8 -41 23 -43 16 -3 18 -1 8 9 -14 14 -17 45 -5 52 4 2 19 7 35 11 25 6
27 4 27 -23 0 -34 15 -42 48 -28 25 11 28 23 10 30 -16 5 18 47 39 47 7 0 13
7 13 15 0 10 10 15 27 15 26 0 26 1 10 17 -13 13 -19 15 -29 5 -16 -16 -28
-15 -28 2 0 26 35 26 120 1 87 -26 130 -31 130 -16 0 5 -10 11 -21 14 -15 4
-20 11 -15 23 3 9 1 23 -6 31 -7 9 -8 17 -2 21 11 9 11 58 -1 92 -5 14 -8 33
-6 43 1 11 -4 17 -18 17 -24 0 -29 28 -6 36 8 4 15 12 15 20 0 8 -7 14 -15 14
-8 0 -15 5 -15 10 0 6 -10 15 -22 21 -52 23 -78 41 -121 84 -26 25 -53 45 -62
45 -9 0 -25 8 -36 18 -11 11 -38 25 -60 32 -43 15 -59 34 -59 73 0 17 7 26 22
30 24 7 17 22 -10 22 -9 0 -17 6 -16 13 1 6 2 19 3 27 0 8 8 15 16 15 21 0 19
13 -5 28 -11 7 -17 18 -14 27 4 8 1 15 -5 15 -8 0 -7 7 1 23 7 12 13 23 14 25
1 1 14 -4 30 -13 16 -8 39 -15 51 -15 12 0 33 -4 47 -10 14 -5 26 -7 26 -5 0
8 -35 41 -51 48 -8 4 -27 16 -44 26 -37 24 -86 48 -185 90 -41 17 -92 41 -112
51 -23 12 -57 20 -87 20 -28 0 -51 5 -51 10 0 6 -6 10 -12 10 -33 0 48 -51
111 -70 69 -21 90 -34 76 -48 -3 -3 -10 0 -15 7 -5 9 -14 11 -26 6 -41 -18
-82 -16 -97 5 -14 20 -15 20 -19 -9 -2 -16 -1 -36 3 -43 12 -21 -2 -107 -16
-102 -8 3 -14 -7 -17 -28 -7 -43 4 -74 12 -34 3 16 10 31 16 33 14 5 25 -45
13 -53 -12 -7 -11 -34 1 -34 6 0 14 10 19 22 7 18 8 19 14 4 12 -32 -42 -87
-66 -67 -7 5 -29 12 -51 16 -25 5 -40 14 -43 26 -5 17 -26 24 -60 20 -6 -1
-14 3 -18 9 -3 5 -17 10 -31 10 -25 0 -33 15 -11 23 6 2 -1 8 -18 12 -16 4
-36 15 -44 24 -9 11 -15 12 -18 4 -3 -8 -10 -7 -23 5 -11 9 -39 22 -62 30
-126 40 -260 75 -318 82 -104 14 -204 40 -217 57 -6 8 -16 12 -22 9 -5 -4 -14
0 -18 9 -7 11 -37 16 -126 21 -74 5 -117 11 -117 18 0 6 -4 4 -10 -4 -7 -12
-12 -11 -31 5 -17 16 -21 16 -17 4 11 -30 -8 -43 -61 -40 -17 1 -21 5 -17 17
3 8 2 12 -4 9 -6 -3 -10 0 -10 7 0 10 -2 10 -9 0 -11 -18 -20 18 -31 123 -9
78 -24 149 -41 190 -4 11 -9 31 -11 45 -2 18 -11 28 -35 35 -18 5 -33 13 -33
17 0 4 -8 8 -17 8 -15 0 -14 -4 6 -19 13 -10 21 -23 18 -28 -8 -13 -153 -24
-197 -14 -19 4 -75 3 -125 -1 -233 -22 -276 -26 -365 -38 -74 -10 -104 -10
-142 -1 -26 7 -51 10 -55 8 -4 -3 -66 -8 -136 -11 -70 -4 -138 -11 -152 -16
-13 -5 -57 -12 -97 -15 -40 -3 -81 -8 -91 -11 -16 -5 -18 -2 -12 16 5 15 4 20
-4 16 -6 -4 -11 -14 -11 -22 0 -8 -10 -14 -22 -15 -81 -4 -101 -7 -108 -19 -5
-8 -6 -18 -3 -23 3 -4 -4 -11 -16 -14 -12 -3 -21 -10 -21 -15 0 -6 -7 -8 -15
-4 -10 3 -15 -1 -15 -11 0 -9 -3 -14 -6 -10 -12 12 7 46 22 40 11 -4 14 0 12
11 -2 11 11 24 37 39 44 24 57 33 86 60 10 9 24 17 29 17 6 0 10 5 10 10 0 6
10 15 23 20 20 9 105 66 134 90 7 5 19 10 27 10 7 0 16 7 20 15 3 8 12 15 20
15 8 0 21 6 28 13 7 6 31 21 52 32 22 11 62 35 90 53 28 17 58 32 66 32 9 0
21 5 27 11 6 6 29 15 50 20 38 8 99 29 203 69 60 23 155 47 238 60 29 5 74 13
100 19 59 13 311 28 417 24 44 -2 152 -12 240 -23z m-3259 -5 c10 -8 27 -15
37 -15 9 0 17 -4 17 -9 0 -5 8 -12 19 -16 24 -7 70 -47 84 -73 7 -11 23 -41
36 -66 14 -25 34 -54 45 -65 21 -20 145 -73 201 -87 40 -10 45 -20 39 -79 -8
-70 -34 -119 -67 -123 -14 -2 -31 -10 -37 -18 -7 -8 -22 -14 -34 -14 -12 0
-26 -4 -32 -10 -5 -5 -59 -19 -119 -31 -107 -20 -111 -21 -163 -3 -29 9 -56
22 -61 28 -4 6 -16 79 -26 161 -27 230 -13 435 31 435 5 0 19 -7 30 -15z
m1445 -147 c4 -77 7 -105 18 -131 27 -69 1 -132 -93 -222 -61 -58 -87 -109
-71 -134 9 -15 -30 -91 -65 -128 -16 -18 -30 -36 -30 -42 0 -5 -4 -11 -8 -13
-12 -5 -85 -112 -111 -163 -6 -11 -22 -38 -36 -60 -14 -22 -27 -47 -31 -55 -3
-8 -10 -22 -15 -30 -5 -8 -18 -34 -30 -57 -37 -75 -51 -57 -65 88 -4 40 -2 88
5 120 13 56 42 129 52 129 3 0 20 20 37 44 18 24 62 68 99 98 37 29 76 61 86
71 10 10 33 25 50 32 18 7 39 23 47 35 8 12 23 31 33 43 15 18 18 38 16 135
-3 122 0 130 51 133 24 2 24 2 3 6 -31 6 -30 40 3 70 21 19 29 22 35 11 6 -9
9 -7 9 10 0 13 -6 22 -15 22 -8 0 -15 5 -15 10 0 6 9 10 20 10 16 0 20 -7 21
-32z m-863 -232 c-10 -7 -15 -16 -11 -19 8 -9 -20 -9 -41 -1 -9 3 -16 10 -16
15 0 4 7 5 17 2 11 -4 14 -3 9 5 -5 8 3 12 26 12 29 -1 31 -2 16 -14z m-1018
-46 c22 -11 40 -25 40 -30 0 -6 6 -10 13 -10 23 0 74 -58 81 -91 11 -57 7
-144 -9 -165 -21 -28 -19 -32 23 -36 35 -3 39 -7 69 -68 24 -49 33 -83 37
-137 4 -66 -5 -102 -17 -71 -3 7 -6 0 -7 -17 -2 -46 -10 -79 -20 -89 -4 -4 -6
-15 -3 -22 3 -8 -1 -14 -10 -14 -21 0 -26 -20 -20 -69 5 -33 3 -41 -10 -41
-21 0 -38 31 -52 95 -11 48 -12 49 -24 26 -11 -19 -11 -25 0 -32 10 -6 6 -9
-13 -9 -15 0 -30 -5 -34 -12 -5 -8 -2 -9 9 -5 10 3 17 2 17 -3 0 -6 -7 -10
-15 -10 -8 0 -15 -7 -15 -15 0 -8 -5 -15 -11 -15 -6 0 -9 6 -6 14 3 8 -3 23
-14 34 -10 12 -19 27 -19 34 0 7 -18 51 -41 98 -23 47 -46 96 -52 110 -6 14
-19 34 -28 45 -40 47 -50 112 -47 301 4 218 6 224 84 224 35 0 69 -7 94 -20z
m-259 -103 c18 -46 18 -78 0 -48 -6 9 -11 10 -15 2 -4 -6 -3 -11 2 -11 5 0 9
-14 9 -31 0 -28 -2 -30 -13 -14 -7 10 -15 22 -16 27 -2 5 -12 6 -22 2 -16 -6
-16 -8 6 -28 24 -22 34 -46 20 -46 -5 0 -14 11 -20 25 -6 14 -16 25 -22 25 -5
0 -10 7 -10 15 0 8 -7 15 -16 15 -14 0 -16 9 -11 66 2 36 7 67 10 70 2 3 17 7
33 10 16 3 31 8 34 11 3 2 7 -5 8 -18 2 -13 13 -45 23 -72z m27 -125 c-10 -2
-18 -8 -18 -14 0 -6 -3 -8 -6 -5 -11 10 17 38 30 30 7 -5 5 -9 -6 -11z m22
-42 c0 -5 -4 -10 -10 -10 -5 0 -10 5 -10 10 0 6 5 10 10 10 6 0 10 -4 10 -10z
m-20 -50 c0 -5 -4 -10 -10 -10 -5 0 -10 5 -10 10 0 6 5 10 10 10 6 0 10 -4 10
-10z m20 -20 c0 -5 -5 -10 -11 -10 -5 0 -7 5 -4 10 3 6 8 10 11 10 2 0 4 -4 4
-10z m-83 -19 c10 -15 9 -22 -7 -36 -12 -11 -20 -13 -25 -6 -3 6 1 11 9 11 9
0 16 5 16 10 0 6 -4 10 -10 10 -5 0 -10 7 -10 15 0 21 13 19 27 -4z m-50 -23
c-3 -7 -5 -2 -5 12 0 14 2 19 5 13 2 -7 2 -19 0 -25z m1441 -16 c2 -7 -1 -12
-8 -12 -6 0 -9 4 -6 9 4 5 1 12 -4 14 -6 3 -5 4 2 3 6 -1 14 -8 16 -14z
m-1378 -12 c0 -5 -5 -10 -11 -10 -5 0 -7 5 -4 10 3 6 8 10 11 10 2 0 4 -4 4
-10z m26 -37 c-10 -10 -19 5 -10 18 6 11 8 11 12 0 2 -7 1 -15 -2 -18z m729 3
c17 -9 35 -16 42 -16 11 0 28 -6 108 -41 17 -7 64 -24 105 -39 l75 -26 -1 -69
c0 -41 -5 -70 -12 -73 -6 -2 -14 -19 -18 -38 -3 -19 -10 -34 -15 -34 -5 0 -9
-6 -9 -13 0 -8 -9 -22 -20 -32 -11 -10 -20 -24 -20 -32 0 -7 -6 -13 -13 -13
-6 0 -22 -22 -35 -50 -13 -27 -27 -50 -32 -50 -6 0 -10 -6 -10 -12 0 -17 -55
-48 -83 -48 -25 0 -58 -41 -38 -48 25 -8 9 -23 -21 -20 -33 3 -33 3 -54 98
-11 52 -23 102 -26 110 -12 29 -20 76 -28 173 -5 53 -16 121 -25 149 -8 28
-15 74 -15 101 l0 50 58 -6 c31 -3 71 -12 87 -21z m801 3 c9 -10 16 -36 17
-65 l2 -49 -35 3 c-61 5 -169 33 -181 48 -6 8 -18 14 -26 14 -8 0 -13 5 -11
12 7 20 26 20 30 1 2 -13 9 -8 26 21 l23 38 69 -4 c46 -2 75 -9 86 -19z
m-1440 -129 c24 -43 114 -241 114 -251 0 -5 6 -22 14 -37 7 -15 17 -57 20 -93
l7 -67 -33 4 c-50 6 -68 14 -125 51 -53 35 -60 45 -67 98 -2 17 -12 59 -21 95
-10 36 -18 79 -18 95 0 17 -2 24 -5 16 -2 -8 -10 3 -18 25 -15 45 -6 61 49 81
45 17 66 12 83 -17z m1302 -29 c69 -48 182 -164 182 -188 0 -10 7 -26 14 -36
21 -27 11 -90 -29 -182 -7 -16 -20 -46 -28 -65 -8 -19 -20 -46 -26 -60 -21
-50 -51 -145 -51 -163 0 -10 -8 -34 -19 -55 -12 -25 -20 -71 -25 -142 -8 -128
-10 -142 -19 -157 -4 -6 -4 -18 -1 -27 5 -13 2 -15 -12 -9 -17 6 -17 5 -5 -11
13 -15 12 -20 -12 -42 -33 -31 -36 -30 -35 7 1 19 4 26 9 17 4 -7 11 -9 15 -5
4 4 0 15 -9 25 -10 10 -17 26 -17 35 0 10 -8 17 -19 17 -10 0 -25 9 -32 20 -8
11 -28 22 -46 24 -37 4 -63 22 -63 42 0 8 -4 14 -10 14 -5 0 -10 6 -10 13 0
12 -54 77 -64 77 -3 0 -20 14 -37 31 -17 17 -61 50 -98 73 -83 53 -100 82 -79
128 9 18 21 51 28 73 7 22 18 51 25 65 6 14 20 43 31 65 10 22 33 58 51 81 18
23 33 46 33 52 0 6 3 12 8 14 11 5 52 66 52 78 0 6 11 22 24 35 23 23 26 32
44 128 13 70 29 79 120 71 40 -3 66 -13 110 -43z m4062 23 c0 -8 -5 -12 -10
-9 -6 4 -8 11 -5 16 9 14 15 11 15 -7z m-3970 -25 c0 -6 7 -9 15 -5 8 3 15 1
15 -4 0 -6 7 -10 15 -10 9 0 15 -9 15 -22 0 -13 3 -34 5 -48 3 -14 2 -18 -1
-10 -4 8 -13 19 -20 23 -8 4 -14 16 -14 25 0 10 -10 22 -22 27 -23 11 -37 35
-19 35 6 0 11 -5 11 -11z m5820 -129 c0 -5 -2 -10 -4 -10 -3 0 -8 5 -11 10 -3
6 -1 10 4 10 6 0 11 -4 11 -10z m-2300 -64 c0 -3 -4 -8 -10 -11 -5 -3 -10 -1
-10 4 0 6 5 11 10 11 6 0 10 -2 10 -4z m1393 -13 c-7 -2 -19 -2 -25 0 -7 3 -2
5 12 5 14 0 19 -2 13 -5z m-1215 -25 c1 -13 3 -31 4 -40 2 -9 -1 -17 -7 -18
-5 0 -11 18 -13 40 -1 22 1 40 6 40 5 0 10 -10 10 -22z m1849 16 c-3 -3 -12
-4 -19 -1 -8 3 -5 6 6 6 11 1 17 -2 13 -5z m43 -4 c0 -5 -2 -10 -4 -10 -3 0
-8 5 -11 10 -3 6 -1 10 4 10 6 0 11 -4 11 -10z m-6703 -72 c-3 -8 -6 -5 -6 6
-1 11 2 17 5 13 3 -3 4 -12 1 -19z m4723 7 c0 -9 -6 -12 -15 -9 -8 4 -15 10
-15 15 0 5 7 9 15 9 8 0 15 -7 15 -15z m2062 -37 c-2 -10 1 -18 7 -18 5 0 8
-27 7 -60 0 -33 -2 -60 -4 -60 -7 0 -40 36 -46 50 -3 8 -4 5 -2 -7 2 -13 0
-26 -5 -29 -17 -10 -9 -24 14 -25 12 0 16 -3 10 -6 -7 -2 -13 -11 -13 -18 0
-7 -21 -20 -47 -29 -27 -8 -81 -26 -121 -41 -40 -14 -78 -23 -83 -20 -5 4 -9
23 -9 44 0 32 8 46 48 88 49 51 124 113 138 113 4 0 16 7 26 17 11 9 18 11 18
5 0 -7 7 -12 16 -12 14 0 14 2 3 16 -11 14 -9 15 17 12 21 -2 28 -8 26 -20z
m-1922 -58 c0 -5 -4 -10 -10 -10 -5 0 -10 5 -10 10 0 6 5 10 10 10 6 0 10 -4
10 -10z m-5295 -27 c-5 -15 -4 -16 6 -5 15 14 43 16 34 2 -3 -5 2 -10 11 -10
16 0 15 -2 -2 -21 -14 -16 -16 -23 -6 -26 6 -3 9 -9 6 -15 -4 -6 -10 -5 -15 3
-8 11 -12 11 -23 -3 -7 -10 -18 -18 -25 -18 -6 0 -11 -9 -11 -21 0 -11 -4 -18
-9 -15 -5 4 -12 0 -14 -6 -3 -7 -6 1 -7 17 -1 17 -3 40 -6 52 -6 34 12 71 38
76 13 2 25 5 27 6 2 0 0 -7 -4 -16z m95 -39 c0 -8 -4 -12 -10 -9 -5 3 -10 10
-10 16 0 5 5 9 10 9 6 0 10 -7 10 -16z m349 -11 c2 -2 -5 -3 -17 -3 -14 0 -22
6 -22 16 0 14 3 15 18 3 9 -7 19 -15 21 -16z m-384 -68 c-38 -31 -45 -24 -10
10 16 14 31 23 34 19 3 -3 -7 -16 -24 -29z m5330 -35 c3 -5 -1 -10 -9 -10 -9
0 -16 5 -16 10 0 6 4 10 9 10 6 0 13 -4 16 -10z m-5418 -22 c-3 -8 -6 -5 -6 6
-1 11 2 17 5 13 3 -3 4 -12 1 -19z m709 -33 c79 -44 89 -50 94 -55 3 -3 16
-11 30 -18 14 -7 48 -26 75 -42 28 -17 64 -37 80 -44 17 -8 37 -26 44 -40 12
-21 11 -31 -4 -68 -10 -24 -19 -73 -21 -110 -4 -99 -7 -105 -62 -111 -26 -4
-69 -11 -97 -16 -27 -5 -95 -11 -150 -12 -86 -1 -93 -2 -53 -9 40 -7 257 1
323 12 17 2 19 -2 17 -27 -2 -16 -9 -35 -15 -41 -7 -6 -59 -19 -117 -28 -58
-10 -109 -21 -115 -25 -5 -5 -45 -14 -87 -21 -43 -7 -83 -19 -89 -26 -16 -19
75 -18 251 1 129 15 300 18 310 6 3 -3 14 -11 25 -17 23 -13 49 -57 77 -131
16 -43 17 -57 8 -68 -7 -8 -18 -15 -25 -15 -27 0 -152 -76 -190 -115 -84 -87
-133 -179 -159 -295 -13 -58 -19 -62 -73 -45 -17 6 -23 3 -23 -9 0 -9 8 -16
19 -16 20 0 35 -25 25 -41 -9 -16 -33 -10 -44 11 -6 11 -17 20 -25 20 -7 0
-20 6 -27 13 -7 7 -22 19 -34 27 -44 32 -86 90 -88 125 -3 34 -2 35 33 35 28
0 46 -9 80 -40 24 -22 47 -37 50 -34 3 3 1 8 -5 12 -6 4 -14 19 -17 33 -4 14
-17 37 -31 52 -13 14 -32 43 -42 65 -11 22 -31 48 -46 58 -30 21 -40 58 -12
47 12 -4 15 -1 12 13 -2 11 -17 22 -36 28 l-32 9 0 177 c0 98 -5 201 -10 231
-6 30 -15 110 -20 179 -6 69 -15 150 -20 180 -13 83 -12 186 3 198 34 28 152
21 213 -13z m4794 15 c0 -11 -7 -20 -15 -20 -18 0 -19 6 -2 25 16 19 17 18 17
-5z m1990 -30 c23 -10 47 -23 79 -44 11 -7 11 -10 0 -18 -9 -6 -5 -7 12 -2 15
3 30 1 33 -4 3 -6 26 -20 51 -32 47 -23 56 -37 30 -46 -8 -4 -15 -11 -15 -18
0 -6 -17 -30 -38 -54 -39 -44 -66 -57 -235 -113 -118 -39 -118 -39 -111 19 3
26 12 67 20 92 7 25 18 81 23 125 14 118 15 118 75 112 28 -3 62 -10 76 -17z
m-1904 -88 c-11 -10 -15 4 -8 28 l7 25 3 -23 c2 -13 1 -26 -2 -30z m-86 13 c0
-8 -4 -15 -10 -15 -5 0 -10 7 -10 15 0 8 5 15 10 15 6 0 10 -7 10 -15z m140
-91 c0 -8 -7 -14 -15 -14 -17 0 -18 2 -9 24 7 18 24 12 24 -10z m-5630 -20 c8
-3 33 -28 55 -56 22 -27 46 -56 53 -63 6 -7 12 -20 12 -27 0 -7 7 -22 15 -32
8 -11 15 -32 15 -48 0 -21 -5 -28 -20 -28 -11 0 -20 -4 -20 -10 0 -5 -7 -10
-15 -10 -9 0 -27 -12 -41 -27 -14 -16 -31 -28 -37 -28 -7 -1 -11 -6 -10 -13 5
-20 -25 -14 -37 7 -16 30 -14 354 3 347 6 -3 19 -9 27 -12z m5538 -22 c2 -7
-3 -12 -12 -12 -9 0 -16 7 -16 16 0 17 22 14 28 -4z m42 -174 c0 -16 -3 -19
-11 -11 -6 6 -8 16 -5 22 11 17 16 13 16 -11z m-4277 -3 c22 6 27 3 33 -19 3
-14 10 -26 15 -26 6 0 4 -6 -3 -14 -9 -10 -20 -11 -37 -4 -14 5 -30 7 -37 4
-7 -3 -14 8 -17 27 -5 35 2 56 13 37 4 -7 17 -9 33 -5z m87 -64 c0 -6 -5 -13
-10 -16 -8 -5 -7 -11 1 -21 9 -11 8 -14 -5 -14 -22 0 -31 27 -16 45 14 17 30
20 30 6z m-98 -28 c-6 -3 -10 -9 -6 -14 9 -15 24 -10 25 9 0 13 3 12 11 -6 14
-29 6 -36 -29 -25 -35 12 -42 38 -11 40 13 0 17 -1 10 -4z m166 -93 c1 -34 -3
-60 -8 -60 -6 0 -10 17 -11 38 0 20 -3 31 -6 24 -2 -6 -9 -10 -14 -6 -9 5 19
64 31 64 4 0 7 -27 8 -60z m-1174 -43 c8 -50 -7 -198 -24 -242 -7 -16 -14 -76
-17 -132 -3 -57 -10 -103 -14 -103 -5 0 -9 -9 -9 -20 0 -18 -5 -19 -67 -13
-39 3 -76 12 -86 21 -15 14 -17 13 -17 -1 0 -24 -42 -22 -64 2 -22 24 -18 118
7 171 8 19 23 64 32 100 10 40 31 88 55 123 22 32 40 60 40 62 0 23 90 73 131
74 24 1 27 -4 33 -42z m7780 20 c17 -12 14 -16 -35 -39 -30 -14 -56 -24 -58
-22 -7 6 21 34 33 34 7 0 21 6 31 14 18 13 18 14 -9 9 -20 -4 -27 -2 -22 6 10
15 38 14 60 -2z m-120 -53 c5 -14 4 -15 -8 -5 -11 10 -16 8 -24 -6 -6 -10 -14
-15 -17 -11 -9 8 16 37 31 38 7 0 15 -7 18 -16z m186 -66 c0 -3 8 -9 18 -11 9
-3 3 -5 -15 -6 -35 -1 -63 7 -63 19 0 4 13 7 30 6 16 -1 30 -4 30 -8z m-6795
-17 c23 -4 46 -10 52 -14 6 -4 14 0 17 9 4 9 15 14 28 12 21 -3 24 -11 32 -85
5 -45 6 -88 3 -96 -4 -11 -26 -15 -86 -15 l-82 -1 -6 29 c-3 17 -10 33 -14 36
-5 3 -9 20 -9 38 0 18 -7 41 -15 52 -8 10 -15 27 -15 38 0 15 5 17 28 11 15
-4 45 -11 67 -14z m-1005 -31 c5 0 12 -16 16 -35 3 -19 10 -35 15 -35 5 0 9
-24 9 -53 0 -41 -5 -58 -20 -72 -21 -19 -18 -35 7 -35 9 0 27 -10 40 -22 18
-16 23 -32 23 -68 0 -25 -5 -51 -12 -58 -12 -12 -87 -16 -125 -6 -31 9 -34 23
-19 126 8 51 17 127 21 168 7 81 27 149 33 111 2 -12 7 -21 12 -21z m7410 -10
c-12 -12 -25 -19 -28 -15 -4 3 4 15 18 25 32 24 38 18 10 -10z m-41 -13 c-2
-1 -13 -9 -24 -17 -19 -14 -19 -14 -6 3 7 9 18 17 24 17 6 0 8 -1 6 -3z
m-2162 -54 c-4 -3 -2 -12 4 -20 7 -8 8 -13 1 -13 -5 0 -15 6 -21 14 -9 11 -9
15 1 19 19 8 22 8 15 0z m2423 -48 c0 -8 -4 -15 -10 -15 -5 0 -10 7 -10 15 0
8 5 15 10 15 6 0 10 -7 10 -15z m-1525 -45 c-3 -6 2 -10 12 -11 10 -1 1 -6
-19 -11 -21 -6 -38 -14 -38 -20 0 -5 -10 -6 -21 -3 -15 5 -19 4 -15 -4 4 -7
-1 -11 -13 -11 -12 0 -21 -4 -21 -9 0 -4 -20 -14 -45 -21 -25 -7 -45 -17 -45
-21 0 -5 -6 -9 -12 -9 -7 0 -33 -16 -57 -35 -24 -19 -47 -35 -51 -35 -4 0 -11
-8 -14 -17 -4 -10 -15 -34 -26 -53 -10 -19 -28 -66 -40 -105 -12 -38 -28 -85
-36 -103 -8 -18 -14 -43 -14 -56 0 -12 -9 -52 -20 -87 -51 -165 -45 -142 -94
-351 -9 -37 -16 -93 -16 -125 0 -55 2 -59 30 -72 26 -11 43 -11 98 0 66 12
108 30 189 82 24 15 45 27 47 27 3 0 28 14 56 30 28 17 58 30 66 30 8 0 18 8
21 17 4 9 15 25 25 35 17 17 22 18 70 3 28 -8 77 -15 108 -15 30 0 88 -9 128
-20 39 -11 78 -20 86 -20 15 0 28 32 28 70 -1 16 1 19 4 8 3 -10 13 -18 22
-17 11 0 12 2 5 6 -7 2 -13 11 -13 19 0 8 -7 14 -15 14 -8 0 -15 6 -15 13 0
16 -124 38 -247 44 l-93 5 6 26 c4 15 12 34 18 42 6 8 19 33 29 55 11 22 25
53 33 68 8 16 14 33 14 39 0 11 21 61 48 117 31 63 33 62 177 -104 33 -38 98
-110 145 -160 104 -110 150 -165 150 -178 0 -6 6 -18 13 -26 35 -42 47 -153
22 -201 -17 -32 -25 -36 -41 -20 -5 5 -58 13 -116 16 -91 6 -109 5 -123 -10
-9 -9 -25 -16 -36 -16 -11 0 -29 -5 -40 -11 -50 -26 -261 -47 -319 -30 -19 5
-53 14 -75 20 -23 6 -51 20 -63 31 -18 17 -20 25 -11 47 15 39 4 39 -40 0 -22
-19 -52 -44 -68 -53 -15 -10 -30 -21 -33 -25 -10 -13 -150 -39 -207 -39 -68 0
-69 1 -112 62 -31 44 -33 51 -28 100 12 105 50 285 88 428 19 69 24 110 24
218 0 142 3 152 53 152 13 0 22 6 22 16 0 8 -5 12 -10 9 -22 -13 -50 6 -50 34
0 37 19 52 69 54 40 1 54 11 29 19 -23 8 8 58 36 58 13 0 29 7 36 15 7 8 25
15 40 15 15 0 47 7 71 16 24 8 62 19 84 24 22 5 56 13 75 17 53 13 82 14 75 3z
m-5164 -36 c30 -10 72 -14 134 -12 71 2 89 0 87 -11 -2 -7 5 -22 15 -33 10
-11 20 -44 24 -81 3 -34 9 -72 13 -85 l8 -24 -129 6 c-150 7 -124 7 -248 -3
-55 -5 -113 -14 -128 -20 -34 -13 -47 -14 -27 -1 12 8 13 13 3 30 -7 11 -13
26 -13 34 0 8 6 17 13 19 9 4 9 6 0 6 -7 1 -24 -20 -40 -46 -15 -25 -29 -41
-31 -35 -4 14 59 133 76 139 6 3 12 11 12 18 0 8 9 17 20 20 11 3 20 11 20 16
0 5 5 9 11 9 7 0 17 6 23 14 13 16 85 56 102 56 6 0 31 -7 55 -16z m-750 -114
c6 0 7 -4 4 -10 -13 -22 -25 -8 -24 28 2 30 3 32 6 10 2 -16 9 -28 14 -28z
m7629 -86 c0 -8 -4 -12 -10 -9 -5 3 -10 13 -10 21 0 8 5 12 10 9 6 -3 10 -13
10 -21z m-7590 -10 c0 -11 -5 -14 -16 -10 -9 3 -21 6 -27 6 -16 0 14 20 31 20
6 0 12 -7 12 -16z m-576 -20 c4 -10 1 -14 -6 -12 -15 5 -23 28 -10 28 5 0 13
-7 16 -16z m216 -3 c36 -5 82 -13 103 -16 42 -7 44 -11 19 -41 -11 -14 -37
-26 -72 -32 -30 -6 -65 -13 -77 -17 -21 -7 -23 -4 -24 31 -2 30 -3 33 -6 12
-5 -34 -15 -36 -28 -6 -17 37 -37 35 -30 -3 3 -19 1 -41 -4 -49 -8 -12 -13
-12 -35 0 -20 10 -26 21 -26 48 0 29 3 34 20 29 16 -4 18 -1 13 23 -8 42 4 44
147 21z m1370 -72 c15 -27 32 -147 25 -170 -5 -15 -11 -16 -32 -8 -14 5 -34 7
-45 3 -10 -3 -24 -1 -31 5 -13 10 -63 9 -74 -2 -3 -3 -12 0 -20 8 -7 8 -33 19
-56 25 -23 6 -55 15 -72 19 -31 9 -68 8 -95 -2 -27 -10 -177 -16 -230 -10 -49
6 -51 7 -45 32 11 43 31 57 108 74 125 28 243 41 429 45 121 3 127 2 138 -19z
m6354 -23 c39 -10 87 -18 108 -18 21 0 38 -4 38 -8 0 -12 -69 -17 -74 -5 -2 5
-5 2 -5 -7 -1 -14 -9 -18 -33 -17 -31 2 -31 2 -5 6 15 2 27 8 27 13 0 19 -155
36 -167 17 -3 -5 -14 1 -25 14 -10 13 -18 20 -17 14 1 -5 -1 -27 -5 -47 -7
-34 -12 -38 -38 -38 -22 0 -29 4 -26 18 4 23 -10 42 -30 42 -12 -1 -10 -5 8
-15 19 -11 21 -14 8 -15 -20 0 -25 -19 -5 -22 6 0 -19 -4 -58 -8 -76 -6 -105
-3 -105 12 0 6 10 8 23 5 25 -7 55 7 39 17 -5 3 -33 4 -62 2 -41 -4 -55 -1
-71 15 -28 28 -23 40 16 37 19 -1 37 1 41 5 14 14 347 1 418 -17z m-7526 -37
c64 -3 79 -17 53 -48 -14 -16 -21 -18 -24 -9 -2 7 -2 3 0 -10 2 -14 -2 -25
-12 -28 -22 -9 -19 -24 5 -24 11 0 20 -4 20 -10 0 -11 -12 -13 -47 -10 -16 1
-23 -4 -23 -16 0 -13 3 -14 15 -4 11 9 19 10 28 1 8 -6 17 -7 23 -2 5 6 28 6
52 2 33 -7 42 -5 42 5 0 8 5 14 10 14 12 0 12 -3 4 -24 -3 -9 -14 -16 -24 -16
-15 0 -18 -6 -14 -27 4 -23 3 -25 -11 -13 -8 7 -13 20 -10 29 3 12 -2 16 -20
17 -14 1 -25 -2 -25 -7 0 -5 -11 -4 -24 1 -32 12 -56 -11 -36 -35 11 -13 8
-15 -19 -15 -18 0 -41 5 -51 10 -10 6 -21 7 -24 2 -2 -4 -18 -9 -35 -10 -28
-2 -35 4 -68 55 -20 32 -39 60 -42 63 -11 9 -43 62 -39 65 8 8 129 35 159 36
19 0 43 4 54 8 11 5 23 7 26 5 3 -1 29 -4 57 -5z m7050 -44 c2 -19 -2 -35 -8
-35 -5 0 -10 16 -10 35 0 19 4 35 8 35 4 0 9 -16 10 -35z m397 15 c17 -7 15
-9 -12 -9 -18 -1 -33 4 -33 9 0 12 17 12 45 0z m292 -10 c1 -11 -3 -23 -9 -26
-7 -5 -9 -1 -5 9 3 10 2 17 -2 17 -5 0 -11 -6 -14 -12 -2 -7 -8 -10 -12 -6
-10 9 13 38 29 38 7 0 12 -9 13 -20z m-7642 -27 c-28 -20 -41 -16 -20 7 10 11
22 17 28 13 6 -4 3 -12 -8 -20z m59 12 c-4 -8 -11 -15 -17 -15 -6 0 -7 -3 -4
-6 4 -4 13 -1 22 6 12 10 15 10 15 -3 0 -20 -21 -27 -42 -13 -15 9 -15 11 4
28 26 22 29 22 22 3z m6986 0 c0 -1 -14 -5 -32 -7 -27 -4 -29 -3 -14 8 15 10
46 10 46 -1z m-6888 -70 c12 -16 0 -19 -19 -4 -15 12 -16 12 -10 -3 3 -10 2
-20 -3 -23 -6 -4 -10 8 -10 26 0 40 -9 34 -12 -8 -1 -22 -8 -33 -22 -37 -11
-3 -22 -3 -25 -1 -2 3 1 5 8 5 7 0 9 5 5 12 -4 6 -3 8 3 5 6 -4 14 0 17 9 7
20 -2 33 -12 18 -6 -8 -32 -10 -86 -5 -9 1 -12 8 -9 21 6 23 23 27 23 5 0 -16
16 -20 24 -6 3 5 15 7 25 4 13 -3 23 2 31 17 l12 22 26 -24 c15 -12 30 -27 34
-33z m3818 5 c0 -5 -2 -10 -4 -10 -3 0 -8 5 -11 10 -3 6 -1 10 4 10 6 0 11 -4
11 -10z m1980 -29 c-6 -12 -14 -21 -18 -21 -4 0 -8 -14 -9 -30 -1 -17 2 -30 7
-30 5 0 7 6 5 13 -3 6 4 18 14 24 19 12 19 11 4 -25 -18 -44 -33 -63 -33 -40
0 8 -7 21 -16 29 -13 10 -12 6 3 -25 17 -36 17 -39 0 -67 -9 -16 -25 -44 -34
-61 -9 -18 -20 -40 -25 -48 -4 -8 -12 -24 -17 -35 -5 -11 -30 -44 -56 -73 -41
-45 -52 -52 -73 -47 -23 6 -24 5 -12 -12 13 -17 13 -17 -4 -2 -14 13 -16 21
-7 38 17 31 51 143 51 168 0 12 8 36 18 54 18 35 178 199 193 199 5 0 9 5 9
12 0 6 3 9 6 6 3 -4 1 -16 -6 -27z m-4896 -7 c5 -14 4 -15 -9 -4 -17 14 -19
20 -6 20 5 0 12 -7 15 -16z m-39 -4 c3 -5 -1 -10 -9 -10 -9 0 -16 5 -16 10 0
6 4 10 9 10 6 0 13 -4 16 -10z m-900 -30 c-11 -5 -27 -9 -35 -9 -9 0 -8 4 5 9
11 5 27 9 35 9 9 0 8 -4 -5 -9z m-59 -13 c4 -4 0 -7 -9 -7 -9 0 -18 4 -21 9
-7 10 20 9 30 -2z m6894 -7 c0 -5 -7 -10 -15 -10 -8 0 -15 5 -15 10 0 6 7 10
15 10 8 0 15 -4 15 -10z m-5962 -16 c29 -8 28 -22 -5 -81 -14 -26 -41 -77 -59
-112 -18 -36 -45 -77 -59 -93 l-26 -28 -69 68 c-38 37 -94 85 -124 107 -31 22
-56 43 -56 47 0 7 32 19 60 24 27 4 55 12 85 25 l30 12 -25 7 c-24 7 -23 7 10
13 68 12 86 14 150 16 36 0 75 -2 88 -5z m5946 -51 c23 -28 17 -30 -12 -4 -12
10 -19 21 -15 25 3 3 7 5 7 4 1 -2 10 -13 20 -25z m-1680 -35 c-8 -25 -32 -47
-51 -48 -7 0 -13 -4 -13 -9 0 -8 -56 -47 -85 -60 -5 -2 -14 -8 -20 -13 -5 -5
-48 -37 -95 -71 -47 -34 -86 -65 -88 -69 -2 -5 -10 -8 -18 -8 -8 0 -14 -4 -14
-8 0 -5 -28 -29 -62 -54 -57 -42 -96 -75 -179 -153 -41 -38 -73 -41 -92 -11
-24 36 -24 203 0 254 9 21 20 39 23 42 4 3 12 15 19 28 14 26 57 46 134 62 30
6 63 17 73 25 11 8 28 15 39 15 12 0 54 11 95 25 152 52 231 71 308 74 30 1
33 -1 26 -21z m-4088 -21 c9 3 25 -6 40 -23 l25 -29 -6 30 c-5 25 -4 27 5 12
7 -10 9 -24 6 -32 -6 -17 -46 -8 -46 11 0 8 -4 14 -10 14 -5 0 -10 -5 -10 -11
0 -5 -4 -7 -10 -4 -5 3 -10 -1 -10 -9 0 -16 16 -29 38 -32 23 -4 26 -13 7 -20
-10 -4 -21 -1 -26 7 -8 12 -10 12 -19 -1 -13 -21 9 -31 81 -37 49 -5 59 -9 59
-24 0 -11 -1 -21 -2 -22 -2 -2 3 -11 10 -19 10 -13 10 -25 0 -62 -7 -27 -15
-41 -19 -34 -5 7 -3 18 2 25 16 18 6 48 -16 49 -47 2 -54 5 -58 22 -4 14 -5
15 -6 1 -2 -25 47 -54 65 -38 19 15 18 4 -2 -26 -9 -14 -14 -31 -11 -39 3 -8
-3 -23 -14 -35 -24 -26 -33 -27 -24 -3 3 9 8 32 11 50 4 30 2 32 -16 22 -23
-12 -26 -26 -7 -34 6 -3 0 -4 -15 -1 -30 6 -28 13 -34 -100 -2 -58 -3 -59 -18
-46 -8 7 -14 34 -15 72 -1 53 2 63 26 85 15 14 27 34 26 45 0 10 -2 31 -3 47
-3 27 -3 27 -7 2 -3 -14 -12 -33 -20 -42 -15 -17 -17 -17 -29 -1 -11 16 -13
14 -19 -20 -4 -20 -12 -37 -17 -37 -6 0 -8 6 -5 13 3 8 8 40 12 73 4 32 14 68
21 79 8 11 14 34 14 52 0 36 20 94 27 76 2 -7 11 -9 19 -6z m-916 -61 c0 -3
-4 -8 -10 -11 -5 -3 -10 -1 -10 4 0 6 5 11 10 11 6 0 10 -2 10 -4z m-170 -56
c0 -5 -9 -10 -20 -10 -11 0 -20 5 -20 10 0 6 9 10 20 10 11 0 20 -4 20 -10z
m-83 -16 c-3 -3 -12 -4 -19 -1 -8 3 -5 6 6 6 11 1 17 -2 13 -5z m-37 -24 c0
-5 -8 -10 -17 -10 -15 0 -16 2 -3 10 19 12 20 12 20 0z m-43 -16 c-3 -3 -12
-4 -19 -1 -8 3 -5 6 6 6 11 1 17 -2 13 -5z m-77 -34 c0 -5 -10 -10 -22 -10
-19 0 -20 2 -8 10 19 13 30 13 30 0z m815 -20 c38 -6 74 -15 79 -20 6 -6 23
-10 38 -10 33 0 36 -20 12 -77 -36 -84 -47 -113 -73 -190 -16 -48 -40 -135
-57 -213 -9 -41 -23 -87 -30 -102 -8 -14 -14 -37 -14 -50 0 -12 -7 -36 -15
-52 -8 -15 -15 -36 -15 -45 0 -9 -14 -53 -32 -99 l-32 -83 -36 6 c-37 5 -125
-12 -332 -65 -70 -19 -130 -31 -133 -28 -18 17 -22 242 -5 263 4 5 10 21 13
35 4 22 4 21 6 -7 0 -17 -4 -44 -9 -59 -6 -15 -8 -35 -4 -43 5 -13 8 -11 14 9
l8 25 8 -24 7 -23 13 23 c18 32 17 38 -3 34 -10 -1 -12 0 -5 2 6 3 12 15 12
28 0 18 4 23 16 18 9 -3 14 -13 11 -24 -3 -11 -1 -19 3 -19 5 0 7 -12 6 -26
-3 -30 -41 -63 -71 -64 -14 0 -21 -7 -21 -20 0 -11 4 -20 8 -20 4 0 8 5 8 11
0 8 4 8 13 1 9 -8 16 -6 25 8 7 11 18 17 27 14 20 -8 45 44 26 55 -10 6 -10
10 -1 16 6 4 9 13 6 21 -7 18 4 45 15 38 13 -8 11 -52 -3 -57 -10 -4 -9 -8 2
-16 12 -8 16 -5 20 16 6 30 5 30 40 19 14 -5 29 -9 33 -10 4 0 11 -6 15 -12 4
-6 21 -17 39 -24 32 -15 53 -46 53 -80 0 -11 6 -20 14 -20 8 0 13 10 12 28
l-1 27 78 -1 c75 -1 100 8 55 20 -13 3 -46 6 -74 6 -27 0 -55 5 -62 12 -9 9
-12 81 -12 264 l0 253 34 37 c26 28 37 54 52 118 19 87 49 137 99 168 35 21
30 21 120 8z m-415 -74 c0 -3 -4 -8 -10 -11 -5 -3 -10 -1 -10 4 0 6 5 11 10
11 6 0 10 -2 10 -4z m-593 -38 c-3 -8 -6 -5 -6 6 -1 11 2 17 5 13 3 -3 4 -12
1 -19z m1619 -10 c-18 -26 -22 -17 -5 14 6 11 13 17 16 15 3 -3 -2 -16 -11
-29z m-70 7 c11 -27 -2 -37 -14 -11 -7 16 -8 26 -1 26 5 0 12 -7 15 -15z
m-906 -26 c0 -5 -4 -9 -10 -9 -5 0 -10 7 -10 16 0 8 5 12 10 9 6 -3 10 -10 10
-16z m803 -3 c4 -10 1 -13 -9 -9 -9 3 -14 -1 -14 -13 0 -9 -3 -15 -6 -11 -8 7
5 47 16 47 4 0 10 -7 13 -14z m-174 -77 c17 -26 35 -59 40 -72 6 -14 15 -28
20 -32 16 -9 13 -25 -4 -25 -8 0 -15 -7 -15 -16 0 -14 -3 -14 -15 -4 -16 13
-19 1 -17 -83 0 -25 -3 -37 -11 -34 -7 2 -13 29 -14 68 -2 107 -2 109 -18 109
-8 0 -15 -4 -15 -10 0 -5 5 -10 11 -10 7 0 9 -8 4 -22 -4 -13 -9 -45 -12 -73
-6 -60 -10 -65 -21 -35 -11 29 -17 13 -21 -50 -2 -43 -20 -70 -45 -70 -6 0 -5
4 2 8 12 8 15 30 12 92 -1 42 4 64 22 84 9 10 21 15 26 12 6 -3 8 2 5 13 -3
11 -14 22 -25 24 -16 5 -19 2 -15 -14 3 -10 2 -19 -2 -19 -4 0 -13 -17 -19
-37 -33 -114 -31 -112 -25 -48 6 67 6 69 27 145 28 101 41 145 49 157 12 19
39 -2 76 -58z m317 35 c-19 -19 -21 -11 -4 16 7 11 14 16 16 10 2 -5 -4 -17
-12 -26z m200 9 c48 -51 58 -87 45 -151 -7 -31 -17 -70 -22 -87 -6 -16 -15
-48 -19 -70 -5 -22 -13 -53 -19 -68 -6 -16 -11 -67 -11 -113 0 -54 -4 -83 -10
-79 -5 3 -10 -1 -10 -10 0 -9 -4 -13 -10 -10 -13 8 -70 126 -70 145 0 8 -6 26
-13 40 -18 34 -40 132 -36 154 2 11 13 24 23 30 26 15 65 58 66 72 0 6 7 17
15 24 16 13 21 50 6 50 -5 0 -14 -13 -21 -30 -7 -16 -18 -30 -25 -30 -7 0 -15
-9 -18 -21 -6 -22 -28 -22 -35 1 -3 9 1 11 11 7 14 -5 15 -3 6 11 -9 14 -6 30
15 75 14 32 26 62 26 67 0 8 19 13 68 19 7 0 24 -11 38 -26z m6124 7 c0 -5 -8
-10 -17 -10 -15 0 -16 2 -3 10 19 12 20 12 20 0z m-6500 -45 c0 -5 -5 -3 -10
5 -5 8 -10 20 -10 25 0 6 5 3 10 -5 5 -8 10 -19 10 -25z m46 15 c18 0 18 -9
-3 -32 -20 -23 -37 -24 -25 -2 5 9 8 26 6 38 -3 12 -2 15 2 9 3 -7 12 -13 20
-13z m105 -64 c-10 -26 -31 -36 -31 -15 0 5 5 7 12 3 7 -5 9 0 6 14 -3 12 -1
23 6 25 17 6 18 2 7 -27z m-931 -16 c0 -5 -10 -15 -22 -21 l-23 -12 20 21 c23
24 25 25 25 12z m1000 -91 c0 -5 -4 -9 -10 -9 -5 0 -10 7 -10 16 0 8 5 12 10
9 6 -3 10 -10 10 -16z m-273 -3 c-4 -10 -1 -13 9 -9 16 6 20 -22 5 -32 -6 -3
-6 -17 -1 -34 8 -28 -3 -62 -16 -49 -11 12 -22 88 -12 88 4 0 6 11 2 25 -4 16
-2 25 6 25 7 0 10 -7 7 -14z m4558 -126 c2 -133 10 -159 56 -181 34 -16 54
-24 164 -61 33 -12 68 -25 77 -29 10 -5 58 -6 109 -2 l91 6 -5 36 c-3 25 3 48
18 77 13 22 26 55 30 72 7 34 25 53 25 27 0 -9 4 -14 9 -11 5 3 11 -22 15 -57
3 -34 9 -83 12 -109 5 -38 2 -53 -15 -77 -18 -25 -35 -33 -114 -51 -50 -12
-110 -26 -132 -30 -22 -4 -83 -19 -137 -34 -53 -14 -106 -26 -118 -26 -27 0
-141 -35 -190 -58 -19 -10 -41 -29 -48 -44 -7 -16 -17 -28 -23 -28 -5 0 -9 -5
-9 -12 0 -6 -7 -19 -15 -28 -22 -24 -25 -74 -5 -75 8 -1 32 -5 53 -9 25 -6 42
-5 49 2 15 15 57 -5 96 -47 40 -43 60 -77 97 -166 7 -16 21 -47 31 -68 14 -28
16 -41 8 -55 -10 -16 -7 -17 50 -11 34 4 75 11 91 16 32 11 147 72 155 83 6 7
79 50 86 50 2 0 4 -24 4 -52 0 -29 9 -80 19 -113 44 -135 51 -167 51 -248 0
-127 -35 -193 -140 -261 -47 -31 -63 -36 -112 -36 -39 0 -58 4 -59 13 0 10 -2
10 -6 0 -8 -21 -33 -15 -33 8 0 11 5 17 10 14 15 -9 12 4 -4 21 -8 8 -21 14
-29 14 -9 0 -17 3 -19 8 -6 13 -63 49 -125 77 -35 16 -63 33 -63 37 0 4 -10 8
-23 8 -28 0 -67 26 -67 46 0 8 -4 14 -9 14 -6 0 -30 14 -54 30 -25 17 -48 30
-51 30 -3 0 -15 9 -26 20 -11 11 -26 20 -34 20 -14 0 -26 41 -26 89 0 14 -7
40 -16 56 -20 38 -30 321 -12 343 9 10 8 12 -2 10 -13 -3 -30 26 -68 112 -63
145 -77 208 -81 351 -1 45 -5 87 -7 94 -11 27 58 125 87 125 5 0 9 3 9 8 0 10
106 92 119 92 6 0 11 4 11 8 0 12 89 49 140 57 25 4 52 11 60 16 38 22 43 8
45 -111z m-5675 80 c-8 -5 -17 -7 -19 -4 -3 3 1 9 9 14 8 5 17 7 19 4 3 -3 -1
-9 -9 -14z m1170 0 c0 -5 -2 -10 -4 -10 -3 0 -8 5 -11 10 -3 6 -1 10 4 10 6 0
11 -4 11 -10z m-9 -43 c-10 -9 -11 -8 -5 6 3 10 9 15 12 12 3 -3 0 -11 -7 -18z
m69 -25 c0 -7 7 -15 15 -18 19 -8 20 -24 1 -24 -7 0 -19 -7 -26 -15 -19 -23
-27 -18 -28 16 -1 25 2 28 14 18 23 -19 28 -3 5 20 -27 27 -27 45 -1 29 11 -7
20 -19 20 -26z m-153 -12 c-1 -17 -5 -30 -8 -30 -12 0 -20 32 -14 52 9 27 24
12 22 -22z m-87 -15 c0 -8 -2 -15 -4 -15 -2 0 -6 7 -10 15 -3 8 -1 15 4 15 6
0 10 -7 10 -15z m140 -15 c0 -5 -4 -10 -10 -10 -5 0 -10 5 -10 10 0 6 5 10 10
10 6 0 10 -4 10 -10z m-100 -25 c0 -14 -4 -25 -10 -25 -5 0 -10 11 -10 25 0
14 5 25 10 25 6 0 10 -11 10 -25z m-150 11 c0 -2 -6 -9 -13 -15 -10 -8 -14 -7
-14 4 0 8 6 15 14 15 7 0 13 -2 13 -4z m422 -48 c40 -83 52 -128 53 -205 2
-58 -1 -73 -13 -73 -11 0 -13 8 -8 30 4 22 2 30 -7 29 -20 -3 -47 12 -47 27 0
8 5 14 10 14 6 0 10 -7 10 -15 0 -18 9 -19 33 -1 17 13 25 52 8 42 -10 -7 -25
22 -22 41 1 8 -5 10 -15 6 -14 -5 -16 -2 -10 21 l7 27 -22 -20 c-17 -16 -20
-26 -15 -55 6 -32 4 -36 -14 -36 -20 0 -28 24 -11 34 5 3 7 15 4 25 -6 25 12
58 37 66 15 5 18 11 11 23 -4 9 -6 23 -3 31 3 8 -1 12 -9 9 -9 -3 -13 -16 -11
-32 2 -23 0 -27 -15 -22 -23 7 -39 -3 -46 -29 -3 -12 -5 -6 -6 15 -1 25 5 40
18 50 11 7 18 17 15 21 -2 4 6 5 18 3 13 -2 17 -2 11 2 -17 8 -17 24 0 24 8 0
25 -24 39 -52z m420 20 c9 -7 18 -29 21 -48 3 -19 11 -64 18 -100 16 -72 19
-448 6 -514 -8 -36 -10 -38 -40 -32 -78 16 -85 15 -91 -11 -4 -13 -4 -28 -1
-33 4 -6 1 -10 -4 -10 -6 0 -11 14 -11 31 0 28 -5 54 -31 164 -26 115 -41 495
-20 534 10 19 30 24 112 29 14 1 32 -4 41 -10z m-592 -48 c0 -5 -4 -10 -10
-10 -5 0 -10 5 -10 10 0 6 5 10 10 10 6 0 10 -4 10 -10z m32 -15 c3 -13 1 -22
-3 -19 -9 5 -13 44 -5 44 2 0 6 -11 8 -25z m78 -25 c0 -5 -5 -10 -11 -10 -5 0
-7 5 -4 10 3 6 8 10 11 10 2 0 4 -4 4 -10z m-213 -30 c-1 -12 -5 -16 -10 -11
-5 5 -6 14 -3 20 11 16 15 13 13 -9z m-917 0 c0 -5 -4 -10 -10 -10 -5 0 -10 5
-10 10 0 6 5 10 10 10 6 0 10 -4 10 -10z m997 -12 c-3 -8 -6 -5 -6 6 -1 11 2
17 5 13 3 -3 4 -12 1 -19z m-1026 2 c15 -9 17 -15 9 -30 -5 -10 -10 -30 -10
-44 0 -43 -21 -126 -31 -120 -5 3 -9 -2 -9 -11 0 -10 -5 -13 -12 -9 -7 4 -8 3
-4 -5 6 -9 11 -9 22 0 16 13 18 1 5 -20 -6 -9 -25 -15 -47 -15 -20 0 -32 -2
-26 -4 23 -7 11 -22 -35 -44 -59 -28 -153 -89 -153 -99 0 -3 -8 -9 -17 -13
-10 -3 -25 -10 -33 -15 -8 -5 -24 -12 -35 -16 -19 -6 -19 -7 -2 -16 21 -12 78
4 122 35 41 29 81 51 145 82 129 61 127 60 135 8 6 -40 10 -46 50 -64 47 -22
80 -26 70 -10 -4 6 5 10 19 10 14 0 26 4 26 10 0 5 -30 10 -67 12 -67 3 -91
20 -36 26 49 4 196 33 251 49 29 8 64 13 77 11 14 -3 23 -1 22 6 -1 7 18 11
50 11 50 0 53 -2 53 -25 0 -14 -7 -57 -15 -95 -8 -39 -15 -93 -15 -120 0 -57
-12 -75 -48 -75 -30 0 -172 42 -172 51 0 12 39 17 44 5 2 -6 5 -4 5 5 1 20
-47 21 -67 2 -13 -12 -42 -7 -53 10 -4 6 -12 6 -20 1 -17 -11 -84 -14 -431
-17 l-278 -4 0 32 c0 18 -2 48 -5 66 -3 19 -3 28 1 22 3 -7 10 -13 15 -13 12
0 12 37 -1 45 -5 3 -10 19 -10 35 0 24 8 35 42 56 23 15 51 35 62 46 l21 20
-22 -11 c-13 -6 -23 -9 -23 -6 0 4 -6 3 -12 -2 -27 -16 -40 -11 -19 8 12 11
21 24 21 29 0 15 162 170 195 188 17 9 70 18 125 22 52 4 96 8 98 8 2 1 12 -3
23 -8z m1089 0 c0 -5 -4 -10 -10 -10 -5 0 -10 5 -10 10 0 6 5 10 10 10 6 0 10
-4 10 -10z m-100 -40 c0 -11 -7 -20 -15 -20 -13 0 -14 4 -5 20 6 11 13 20 15
20 3 0 5 -9 5 -20z m-275 -26 c-8 -16 -15 -23 -15 -16 0 17 20 55 26 49 2 -2
-2 -17 -11 -33z m145 20 c0 -17 -22 -14 -28 4 -2 7 3 12 12 12 9 0 16 -7 16
-16z m374 0 c3 -8 2 -12 -4 -9 -6 3 -10 10 -10 16 0 14 7 11 14 -7z m-289 -4
c3 -5 -1 -10 -10 -10 -9 0 -13 5 -10 10 3 6 8 10 10 10 2 0 7 -4 10 -10z m193
-31 c-2 -6 17 -22 42 -36 51 -27 70 -43 52 -43 -23 0 -12 -18 15 -24 34 -9 45
8 38 59 -6 39 -5 40 9 15 9 -14 16 -36 16 -50 0 -14 7 -34 15 -44 8 -11 15
-32 15 -46 0 -14 9 -43 20 -65 11 -22 20 -44 20 -51 0 -6 7 -17 15 -24 8 -7
15 -21 15 -30 0 -10 6 -31 14 -47 24 -46 39 -137 32 -185 -14 -93 -16 -104
-27 -155 -13 -56 -27 -65 -64 -40 -11 7 -53 23 -92 36 -51 16 -73 28 -73 40 0
9 -18 36 -40 59 -22 24 -40 49 -40 54 0 6 -12 26 -26 45 -28 37 -43 83 -20 64
11 -9 15 -5 20 20 7 38 2 46 -19 29 -13 -11 -15 -10 -10 1 3 8 20 21 38 29
l32 14 -35 7 c-26 6 -37 4 -43 -7 -4 -8 -22 -14 -38 -14 -22 0 -28 4 -23 13 5
8 2 8 -9 -2 -10 -8 -17 -9 -17 -3 0 6 9 17 20 25 17 12 18 16 6 20 -9 4 -22 0
-30 -8 -21 -21 -36 -18 -36 6 0 13 10 23 28 30 26 9 42 33 57 89 9 30 123 139
147 140 9 0 20 -5 24 -11 4 -7 10 -7 16 -1 17 17 -19 45 -55 45 -18 0 -24 2
-14 4 18 5 17 6 -2 20 -12 8 -19 19 -16 24 9 13 26 11 23 -2z m-98 -8 c0 -5
13 -12 30 -16 41 -9 48 -25 11 -25 -17 0 -31 5 -31 10 0 6 -5 9 -11 8 -6 -2
-13 5 -14 15 -2 9 1 17 6 17 5 0 9 -4 9 -9z m-707 -8 c-7 -2 -19 -2 -25 0 -7
3 -2 5 12 5 14 0 19 -2 13 -5z m357 -47 c-7 -14 -10 -32 -7 -40 4 -9 2 -16 -3
-16 -6 0 -10 -7 -10 -15 0 -8 -4 -15 -10 -15 -13 0 -13 -4 10 60 11 30 20 57
20 59 0 2 3 1 7 -2 3 -4 1 -18 -7 -31z m65 14 c3 -5 1 -10 -4 -10 -6 0 -11 5
-11 10 0 6 2 10 4 10 3 0 8 -4 11 -10z m230 -19 c3 -5 -2 -16 -10 -25 -10 -9
-16 -36 -16 -73 -2 -56 -9 -78 -39 -115 -19 -24 -32 -23 -61 8 -13 14 -44 35
-70 46 -57 27 -80 56 -44 56 14 0 26 -7 28 -17 2 -9 4 1 4 22 1 38 -10 49 -21
22 -3 -8 -11 -15 -18 -15 -10 0 -10 2 0 9 10 6 10 10 -3 21 -13 11 -15 9 -15
-9 0 -12 -4 -19 -10 -16 -5 3 -10 15 -10 25 0 29 55 51 119 46 30 -2 70 2 90
9 44 16 68 18 76 6z m115 -20 c0 -8 -18 -17 -75 -38 -5 -3 0 4 12 15 12 11 19
22 16 26 -4 3 6 6 20 6 15 0 27 -4 27 -9z m-402 -115 c12 -4 22 -13 22 -21 0
-7 5 -15 11 -17 8 -3 5 -11 -6 -22 -17 -17 -20 -17 -31 -2 -10 14 -13 14 -17
3 -3 -8 0 -20 6 -27 9 -10 9 -14 -1 -17 -9 -3 -10 -9 -3 -17 6 -7 10 -23 9
-37 -1 -13 -1 -39 0 -58 2 -27 5 -31 16 -22 11 9 15 5 20 -20 3 -17 6 -53 6
-80 0 -44 -2 -49 -23 -49 -13 0 -28 5 -33 10 -6 6 -30 14 -54 18 -40 7 -44 10
-46 37 -1 17 7 71 17 120 9 50 20 110 24 135 4 25 12 60 18 78 11 32 12 33 27
14 9 -11 26 -23 38 -26z m5493 13 c16 -11 29 -26 29 -34 0 -7 4 -15 10 -17 14
-5 39 -111 33 -144 -3 -16 -15 -39 -26 -51 -19 -22 -28 -23 -163 -23 -81 0
-155 5 -171 11 -15 6 -64 15 -108 19 -109 10 -235 33 -235 42 0 9 71 58 84 58
5 0 32 11 61 24 90 43 134 57 270 89 33 8 76 21 95 30 49 22 87 20 121 -4z
m-5421 -68 c0 -6 -4 -13 -10 -16 -5 -3 -10 1 -10 9 0 9 5 16 10 16 6 0 10 -4
10 -9z m41 -58 c-8 -15 -10 -15 -11 -2 0 17 10 32 18 25 2 -3 -1 -13 -7 -23z
m-47 -8 c-4 -8 -10 -12 -15 -9 -11 6 -2 24 11 24 5 0 7 -7 4 -15z m93 -21 c2
-13 1 -15 -4 -4 -3 8 -11 19 -17 23 -7 6 -6 7 4 4 8 -2 16 -12 17 -23z m7 -40
c5 -14 4 -15 -9 -4 -17 14 -19 20 -6 20 5 0 12 -7 15 -16z m41 7 c3 -5 1 -12
-4 -15 -5 -3 -11 1 -15 9 -6 16 9 21 19 6z m101 -48 c-7 -7 -26 7 -26 19 0 6
6 6 15 -2 9 -7 13 -15 11 -17z m-196 7 c0 -5 -4 -10 -10 -10 -5 0 -10 5 -10
10 0 6 5 10 10 10 6 0 10 -4 10 -10z m162 -34 c97 -116 143 -211 113 -236 -19
-16 -19 -34 0 -26 8 3 15 1 15 -5 0 -19 -128 21 -277 87 -17 8 -36 14 -42 14
-16 0 -14 53 3 75 7 10 11 26 9 36 -3 9 5 27 16 38 12 12 21 25 21 30 0 11 64
19 100 12 13 -2 32 -14 42 -25z m72 9 c3 -8 1 -15 -4 -15 -6 0 -10 7 -10 15 0
8 2 15 4 15 2 0 6 -7 10 -15z m-267 -21 c-3 -3 -12 -4 -19 -1 -8 3 -5 6 6 6
11 1 17 -2 13 -5z m831 -33 c9 -5 25 -12 35 -15 24 -8 22 -50 -7 -140 -47
-143 -92 -219 -124 -208 -14 4 -16 55 -3 80 6 9 17 55 26 102 9 47 22 95 30
107 9 14 12 33 9 52 -7 33 2 38 34 22z m-1925 -22 c76 -8 107 -16 107 -25 0
-7 10 -18 21 -25 16 -8 18 -13 9 -19 -11 -7 -10 -12 3 -25 16 -15 17 -15 17 5
0 28 39 61 64 54 12 -4 16 -2 12 5 -4 6 -2 11 4 11 13 0 3 -43 -11 -48 -5 -2
-9 -10 -9 -18 0 -8 -3 -14 -7 -14 -5 0 -19 -17 -33 -38 -13 -20 -40 -53 -59
-72 -33 -33 -121 -181 -121 -204 0 -20 -18 -39 -29 -31 -9 5 -9 10 0 21 9 11
8 14 -4 14 -30 0 -67 -20 -67 -35 0 -13 7 -15 35 -9 37 7 41 1 29 -43 -5 -17
-14 -23 -34 -23 -25 0 -27 -3 -26 -32 2 -35 26 -53 26 -19 0 12 6 21 14 21 32
0 75 35 81 66 3 18 12 37 20 44 8 7 15 16 15 21 0 24 51 88 72 91 17 2 22 9
20 25 -2 14 4 26 17 33 13 6 21 21 21 36 0 15 13 46 30 71 16 24 30 49 30 56
0 28 51 86 86 97 48 16 175 7 325 -24 142 -28 155 -35 163 -83 12 -77 6 -285
-10 -342 -9 -31 -22 -78 -30 -105 -8 -26 -14 -62 -14 -80 -1 -57 -49 -88 -80
-51 -7 8 -25 15 -40 15 -15 0 -41 7 -58 16 -31 15 -32 18 -32 80 l0 64 51 0
c45 0 50 2 39 15 -7 8 -27 15 -44 15 -17 0 -44 7 -59 15 -15 8 -45 17 -65 21
-57 10 -72 21 -72 54 0 31 62 110 87 110 7 0 13 4 13 9 0 5 27 37 60 72 33 34
60 66 60 70 0 4 6 10 13 12 8 4 9 6 0 6 -6 1 -19 -6 -28 -15 -45 -46 -168
-109 -233 -120 -20 -3 -63 -15 -94 -26 -32 -10 -62 -17 -67 -13 -10 6 -41 -32
-41 -50 0 -5 5 -2 11 8 5 9 20 17 32 17 17 0 19 -2 7 -10 -8 -5 -11 -12 -7
-17 5 -4 16 2 25 14 22 28 132 59 190 54 10 -1 10 -6 2 -21 -11 -20 -60 -29
-60 -10 0 6 -4 10 -9 10 -5 0 -8 -16 -7 -35 2 -23 -1 -34 -8 -32 -6 2 -11 14
-10 26 0 11 -3 21 -8 21 -4 0 -8 -5 -8 -10 0 -6 -3 -9 -7 -9 -19 3 -25 -2 -15
-14 13 -15 5 -57 -10 -57 -6 0 -7 7 -4 16 7 18 -19 60 -28 46 -3 -6 0 -12 6
-15 10 -3 10 -7 0 -19 -14 -17 -7 -68 9 -68 5 0 9 -5 9 -10 0 -6 -6 -9 -12 -8
-8 2 -13 -10 -14 -32 -1 -57 -2 -58 -46 -65 -71 -11 -150 -36 -196 -61 -23
-13 -50 -24 -58 -24 -8 0 -12 -4 -9 -10 3 -5 -1 -10 -10 -10 -9 0 -35 -9 -58
-20 -25 -12 -43 -16 -45 -10 -2 5 -9 7 -15 3 -9 -5 -9 -3 0 8 9 11 8 18 -2 32
-13 17 -14 16 -18 -15 -2 -18 -4 14 -4 72 0 88 1 96 7 45 l7 -60 1 80 c1 55
-1 75 -8 65 -6 -10 -10 69 -10 232 0 188 3 247 13 251 13 5 24 4 190 -14z
m861 -114 c-4 -8 -8 -15 -10 -15 -2 0 -4 7 -4 15 0 8 4 15 10 15 5 0 7 -7 4
-15z m81 -5 c14 -5 23 -14 20 -20 -3 -5 1 -10 9 -10 9 0 16 -5 16 -11 0 -6 -9
-9 -20 -6 -11 3 -23 1 -26 -4 -3 -5 -9 -7 -14 -4 -5 3 -13 -3 -19 -12 -6 -10
-11 -13 -11 -6 0 6 5 15 11 18 7 5 3 15 -10 29 -32 34 -10 46 44 26z m13 -82
c-20 -34 -58 -74 -58 -60 0 6 5 12 11 12 5 0 7 5 4 10 -3 6 -2 10 3 10 5 0 15
11 22 25 7 14 17 25 22 25 4 0 3 -10 -4 -22z m512 15 c0 -17 -19 -37 -27 -29
-4 5 -2 11 5 13 6 3 10 9 6 14 -3 5 0 9 5 9 6 0 11 -3 11 -7z m-590 -33 c0
-16 -4 -30 -10 -30 -11 0 -14 43 -3 53 11 12 13 8 13 -23z m297 4 c-3 -3 -12
-4 -19 -1 -8 3 -5 6 6 6 11 1 17 -2 13 -5z m323 2 c0 -2 -7 -7 -16 -10 -8 -3
-12 -2 -9 4 6 10 25 14 25 6z m-981 -295 c9 -6 -7 -9 -45 -10 -33 0 -66 4 -74
9 -10 7 3 10 45 10 33 0 66 -4 74 -9z m-209 -16 c10 -13 9 -15 -9 -15 -12 0
-21 6 -21 15 0 8 4 15 9 15 5 0 14 -7 21 -15z m6631 -9 c-9 -11 -9 -15 1 -19
8 -4 7 -6 -4 -6 -12 -1 -18 6 -18 19 0 12 7 20 16 20 13 0 14 -3 5 -14z
m-6411 -6 c0 -5 -7 -10 -16 -10 -8 0 -12 5 -9 10 3 6 10 10 16 10 5 0 9 -4 9
-10z m1 -56 c4 -2 9 -15 11 -28 l5 -24 -99 1 c-82 1 -98 3 -98 16 0 21 11 37
30 43 15 6 140 -1 151 -8z m-126 -104 c-3 -5 -11 -10 -16 -10 -6 0 -7 5 -4 10
3 6 11 10 16 10 6 0 7 -4 4 -10z m6573 -29 c2 -14 10 -34 17 -45 7 -12 15 -34
16 -51 2 -16 10 -38 18 -48 14 -16 12 -17 -17 -15 -18 1 -32 6 -32 10 0 4 -32
8 -70 8 -79 0 -82 3 -83 73 0 88 -1 86 51 90 85 7 97 4 100 -22z m-6661 13
c-3 -3 -12 -4 -19 -1 -8 3 -5 6 6 6 11 1 17 -2 13 -5z m163 -8 c0 -8 6 -16 14
-19 8 -3 13 1 12 11 -1 12 6 17 24 16 32 -1 93 -14 99 -20 7 -7 9 -44 2 -44
-14 1 -33 19 -28 27 8 13 -34 10 -61 -5 -19 -11 -27 -10 -52 8 -30 21 -39 40
-20 40 6 0 10 -6 10 -14z m-585 -26 c3 -5 -1 -10 -9 -10 -8 0 -18 5 -21 10 -3
6 1 10 9 10 8 0 18 -4 21 -10z m835 -11 c0 -4 -5 -31 -11 -59 -12 -58 -34 -69
-26 -12 3 20 3 29 1 20 -3 -10 -10 -18 -15 -18 -6 0 -8 -9 -4 -20 5 -15 3 -18
-8 -14 -9 3 -12 14 -9 29 2 14 8 22 13 19 13 -8 11 20 -3 34 -17 17 7 40 37
34 14 -2 25 -8 25 -13z m-885 1 c-3 -5 -12 -7 -20 -3 -21 7 -19 13 6 13 11 0
18 -4 14 -10z m7580 0 c7 -12 -2 -12 -30 0 -19 8 -19 9 2 9 12 1 25 -3 28 -9z
m53 -110 c4 -33 -33 -59 -54 -38 -12 11 -12 19 -2 41 17 35 52 33 56 -3z m80
4 c17 10 15 0 -4 -18 -20 -21 -34 -12 -34 22 0 24 1 25 13 7 8 -10 19 -15 25
-11z m-7708 -14 c0 -5 -5 -10 -11 -10 -5 0 -7 5 -4 10 3 6 8 10 11 10 2 0 4
-4 4 -10z m550 -42 c0 -17 -18 -44 -24 -37 -8 7 5 49 15 49 5 0 9 -6 9 -12z
m105 2 c-3 -5 -10 -10 -16 -10 -5 0 -9 5 -9 10 0 6 7 10 16 10 8 0 12 -4 9
-10z m185 1 c0 -6 -4 -13 -10 -16 -5 -3 -10 1 -10 9 0 9 5 16 10 16 6 0 10 -4
10 -9z m-240 -31 c0 -5 -7 -10 -16 -10 -8 0 -12 5 -9 10 3 6 10 10 16 10 5 0
9 -4 9 -10z m40 6 c0 -2 -7 -9 -15 -16 -12 -10 -15 -10 -15 4 0 9 7 16 15 16
8 0 15 -2 15 -4z m6381 -23 c33 -20 36 -55 6 -61 -11 -2 -27 -12 -37 -22 -9
-9 -24 -20 -31 -22 -8 -3 -11 -8 -7 -12 3 -4 31 4 62 18 30 14 62 23 70 20 8
-3 17 -1 21 5 3 6 22 11 40 11 19 0 55 7 81 16 37 12 71 14 163 10 177 -9 183
-9 231 10 25 10 68 17 95 17 28 0 52 3 55 8 8 12 67 -32 82 -61 7 -14 14 -28
16 -32 2 -3 -16 -20 -40 -36 -43 -29 -52 -32 -202 -48 -22 -2 -80 -7 -130 -10
-49 -3 -110 -10 -135 -16 -78 -17 -151 -21 -151 -8 0 7 7 10 17 6 20 -8 32 9
26 35 -6 20 -23 27 -23 9 0 -5 -9 -10 -20 -10 -11 0 -20 6 -20 13 0 8 -2 9 -8
1 -5 -9 -22 -9 -62 -2 -44 8 -71 7 -133 -7 -42 -9 -77 -21 -77 -26 0 -5 -11
-15 -25 -21 -14 -6 -25 -20 -25 -31 0 -15 3 -17 14 -8 18 15 73 3 78 -18 7
-26 -2 -39 -24 -33 -17 4 -19 2 -13 -17 5 -17 2 -21 -14 -21 -13 0 -21 9 -26
30 -7 32 -19 45 -35 35 -6 -4 -2 -15 10 -27 11 -12 20 -28 20 -35 0 -16 -44
-35 -64 -27 -8 3 -17 1 -20 -4 -8 -13 34 -23 64 -15 14 3 35 13 48 21 19 13
27 13 47 2 39 -21 32 -53 -12 -68 -76 -25 -187 -52 -217 -52 -17 0 -49 -7 -71
-15 -22 -8 -56 -14 -75 -15 -20 0 -41 -5 -47 -11 -15 -15 -50 -2 -63 22 -12
21 -30 26 -30 6 0 -7 -9 -18 -20 -25 -11 -7 -20 -21 -20 -32 0 -24 -37 -47
-53 -31 -7 7 -6 16 5 28 9 10 18 27 20 38 4 26 74 63 121 64 20 1 37 4 37 9 0
4 14 13 30 20 17 8 48 28 69 45 22 18 54 43 72 57 18 14 40 32 48 41 9 8 32
27 51 42 40 29 80 96 80 132 0 34 48 87 71 80 11 -4 19 -2 19 4 0 6 -7 11 -15
11 -8 0 -15 7 -15 15 0 21 54 20 91 -2z m-641 -18 c7 -9 10 -18 7 -21 -6 -7
-47 18 -47 28 0 14 27 9 40 -7z m-5828 -40 c-4 -25 -19 -41 -28 -32 -5 5 24
57 31 57 1 0 0 -11 -3 -25z m108 16 c0 -5 -7 -12 -16 -15 -14 -5 -15 -4 -4 9
14 17 20 19 20 6z m5440 -2 c0 -6 -7 -9 -15 -5 -8 3 -15 1 -15 -4 0 -6 -5 -10
-11 -10 -5 0 -7 5 -3 12 4 7 3 8 -4 4 -7 -4 -12 -14 -12 -22 0 -8 -7 -14 -16
-14 -8 0 -12 -4 -9 -10 3 -5 1 -10 -4 -10 -6 0 -11 -6 -11 -14 0 -8 -11 -17
-25 -20 -15 -4 -30 -17 -35 -31 -5 -14 -14 -25 -20 -25 -5 0 -10 -4 -10 -9 0
-6 -13 -30 -30 -54 -16 -25 -30 -48 -30 -52 0 -5 -15 -26 -34 -49 -18 -23 -36
-51 -40 -62 -7 -24 -45 -39 -60 -24 -6 6 -2 17 12 30 12 12 22 26 22 32 0 6 6
19 13 27 7 9 20 36 27 60 8 25 25 60 37 78 13 19 23 37 23 41 0 4 14 16 30 27
36 24 39 45 6 45 -14 0 -30 -10 -40 -25 -10 -14 -27 -31 -39 -36 -12 -6 -30
-28 -40 -49 -12 -25 -27 -40 -43 -44 -20 -5 -25 -12 -21 -26 3 -11 1 -20 -4
-20 -19 0 -28 -37 -18 -75 12 -44 8 -52 -16 -29 -16 17 -16 53 0 139 2 11 4
23 4 27 1 4 9 9 19 12 10 4 29 30 41 59 45 106 41 102 105 105 32 2 72 -2 89
-8 17 -5 33 -7 36 -4 3 4 0 9 -6 11 -22 8 -14 21 15 26 59 9 132 7 132 -4z
m311 -12 c-13 -13 -26 -3 -16 12 3 6 11 8 17 5 6 -4 6 -10 -1 -17z m-1096 -27
c3 -5 -1 -10 -10 -10 -9 0 -13 5 -10 10 3 6 8 10 10 10 2 0 7 -4 10 -10z m55
0 c0 -5 -8 -10 -17 -10 -15 0 -16 2 -3 10 19 12 20 12 20 0z m-102 -14 c-7 -8
-14 -10 -16 -5 -2 5 -12 9 -23 9 -22 0 -26 -28 -4 -36 8 -4 13 -10 10 -14 -3
-5 3 -6 13 -3 12 3 23 -4 32 -21 7 -14 19 -26 27 -26 7 0 13 -5 13 -10 0 -6
11 -15 24 -20 14 -5 30 -19 36 -30 10 -19 10 -21 -8 -11 -14 8 -24 6 -38 -5
-18 -15 -18 -15 8 -10 15 4 30 2 33 -4 4 -6 -10 -10 -34 -10 -23 0 -41 5 -41
10 0 7 -6 7 -20 0 -14 -7 -20 -7 -20 0 0 5 -5 10 -11 10 -5 0 -8 -4 -5 -9 3
-5 -21 -12 -54 -15 -33 -4 -60 -11 -60 -16 0 -6 -12 -10 -26 -10 -14 0 -48 -7
-76 -17 -39 -13 -55 -14 -69 -5 -23 15 -32 15 -24 2 3 -6 -1 -7 -10 -4 -14 6
-10 14 22 47 21 23 46 49 56 58 9 9 17 21 17 27 0 5 7 12 15 16 8 3 15 12 15
21 0 8 5 15 11 15 6 0 20 12 32 26 28 36 72 53 135 54 45 0 51 -2 40 -14z
m128 -23 c-11 -11 -17 4 -9 23 7 18 8 18 11 1 2 -10 1 -21 -2 -24z m-106 7 c0
-5 -5 -10 -11 -10 -5 0 -7 5 -4 10 3 6 8 10 11 10 2 0 4 -4 4 -10z m1004 -49
c-2 -2 -11 2 -19 9 -13 11 -13 15 -3 21 8 5 15 2 19 -9 4 -9 5 -19 3 -21z
m-249 11 c-18 -14 -19 -21 -9 -40 8 -17 13 -20 18 -10 3 7 5 4 3 -7 -1 -12
-10 -20 -22 -20 -31 0 -33 53 -3 77 29 22 40 23 13 0z m255 -32 c0 -5 5 -10
10 -10 6 0 20 -9 31 -19 21 -19 21 -19 -13 -11 -80 20 -96 31 -65 43 21 9 37
7 37 -3z m-6343 -137 c-2 -21 -4 -6 -4 32 0 39 2 55 4 38 2 -18 2 -50 0 -70z
m6318 77 c3 -5 18 -10 32 -10 32 0 76 -45 68 -70 -4 -12 3 -25 22 -39 26 -19
26 -20 7 -21 -26 0 -74 36 -74 56 0 8 -20 24 -45 36 -42 21 -54 36 -38 51 9
10 21 9 28 -3z m-231 -31 c-6 -11 -24 -2 -24 11 0 5 7 7 15 4 8 -4 12 -10 9
-15z m-474 -24 c0 -12 -19 -12 -23 0 -4 9 -1 12 9 8 7 -3 14 -7 14 -8z m20
-45 c0 -5 -4 -10 -9 -10 -6 0 -13 5 -16 10 -3 6 1 10 9 10 9 0 16 -4 16 -10z
m1440 -10 c0 -5 -4 -10 -10 -10 -5 0 -10 5 -10 10 0 6 5 10 10 10 6 0 10 -4
10 -10z m850 -14 c0 -23 -17 -36 -44 -36 -39 0 -50 8 -35 27 10 11 79 20 79 9z
m-1823 -12 c-3 -3 -12 -4 -19 -1 -8 3 -5 6 6 6 11 1 17 -2 13 -5z m263 -30 c0
-2 -9 -4 -20 -4 -11 0 -20 4 -20 9 0 5 9 7 20 4 11 -3 20 -7 20 -9z m1295 -4
c6 -3 25 -6 43 -4 17 1 32 0 32 -1 0 -2 -14 -11 -32 -19 -39 -20 -101 -20
-153 0 -46 18 -95 24 -95 13 0 -4 42 -17 94 -29 84 -20 95 -25 99 -47 4 -24 4
-24 -52 -18 -31 4 -66 11 -78 17 -16 8 -35 7 -67 -1 -25 -6 -68 -11 -96 -11
-28 0 -59 -4 -69 -9 -10 -6 -52 -13 -94 -17 l-77 -7 0 30 c0 22 -6 33 -26 42
-15 6 -24 15 -20 18 10 10 144 13 170 3 33 -12 134 3 149 23 6 9 35 20 62 25
54 9 194 4 210 -8z m-1610 -20 c-3 -5 -11 -10 -16 -10 -6 0 -7 5 -4 10 3 6 11
10 16 10 6 0 7 -4 4 -10z m65 -11 c0 -6 -4 -7 -10 -4 -5 3 -10 11 -10 16 0 6
5 7 10 4 6 -3 10 -11 10 -16z m55 1 c-3 -5 -10 -10 -16 -10 -5 0 -9 5 -9 10 0
6 7 10 16 10 8 0 12 -4 9 -10z m84 7 c-2 -1 -13 -9 -24 -17 -19 -14 -19 -14
-6 3 7 9 18 17 24 17 6 0 8 -1 6 -3z m820 -61 c25 -39 27 -76 6 -76 -10 0 -15
10 -15 30 0 17 -9 39 -20 50 -24 24 -25 30 -6 30 8 0 24 -15 35 -34z m-846 -9
c-3 -5 -9 -3 -14 4 -8 12 -11 12 -18 -1 -6 -8 -13 -11 -16 -8 -4 4 -1 13 6 21
10 11 18 12 31 4 9 -6 14 -15 11 -20z m-135 7 c11 -12 17 -41 20 -103 4 -78 7
-89 33 -115 16 -17 29 -36 29 -43 0 -7 5 -13 10 -13 15 0 12 34 -9 87 -10 26
-21 69 -25 96 -7 43 -5 47 13 47 11 0 26 -6 33 -14 8 -7 27 -17 44 -20 16 -4
37 -17 46 -30 15 -21 15 -26 2 -44 -8 -11 -27 -22 -42 -24 l-27 -3 28 -28 c15
-15 27 -36 27 -47 0 -20 -44 -60 -66 -60 -8 0 -14 -4 -14 -10 0 -5 11 -10 24
-10 39 0 56 -10 56 -34 0 -24 33 -132 43 -142 4 -4 7 -16 7 -26 0 -19 17 -23
79 -19 22 2 31 -1 26 -8 -3 -6 -10 -9 -14 -7 -4 3 -13 1 -20 -4 -19 -11 -2
-33 21 -26 20 5 20 5 1 -13 -11 -10 -29 -21 -40 -25 -25 -8 -73 12 -73 30 0 8
-6 11 -15 8 -8 -4 -12 -10 -9 -15 3 -5 -21 -9 -54 -9 -62 0 -112 25 -112 56 0
9 -12 36 -27 62 -16 25 -37 68 -49 95 -11 27 -28 57 -37 68 -10 10 -17 21 -17
23 0 3 -20 34 -45 70 -47 69 -55 105 -30 126 8 7 15 18 15 24 1 18 32 49 85
83 58 38 61 38 83 17z m67 -1 c-2 -27 -20 -31 -23 -5 -2 14 2 22 11 22 7 0 13
-8 12 -17z m184 -42 c-15 -5 -22 6 -14 19 6 9 10 9 16 -1 5 -8 4 -15 -2 -18z
m699 17 c18 -18 15 -48 -6 -48 -10 0 -22 -4 -27 -8 -32 -28 -143 -40 -138 -16
1 7 -8 9 -22 6 -20 -3 -25 -11 -25 -33 0 -15 -6 -31 -12 -36 -33 -21 -353 -52
-369 -36 -6 6 10 22 43 44 29 18 58 35 63 38 6 2 18 11 29 20 20 18 100 36
216 50 41 5 86 14 100 20 35 14 134 13 148 -1z m-546 -40 c-5 -5 -18 -8 -28
-6 -17 3 -17 5 6 28 23 23 25 23 28 6 2 -10 -1 -23 -6 -28z m878 -24 c0 -8 -3
-13 -8 -10 -7 4 -61 -5 -122 -23 -30 -9 -26 -9 25 -5 33 3 69 8 79 11 16 4 17
3 6 -9 -7 -7 -23 -14 -34 -14 -12 0 -41 -1 -66 -3 -37 -2 -41 -4 -20 -10 14
-4 38 -3 53 2 29 10 43 5 33 -11 -3 -5 -34 -12 -68 -15 -35 -3 -112 -15 -173
-26 -60 -12 -126 -21 -145 -21 l-35 1 25 14 c29 16 53 20 30 4 -11 -7 -4 -8
25 -3 49 9 94 22 78 23 -7 1 -10 8 -7 16 5 12 -3 15 -42 14 -27 -1 -62 -8 -77
-16 -34 -17 -50 -8 -23 13 14 10 48 14 112 14 74 0 93 3 98 16 3 8 10 12 16 9
5 -3 10 -2 10 3 0 12 119 36 203 41 18 1 27 -4 27 -15z m57 2 c-3 -7 0 -19 6
-25 8 -8 8 -14 -2 -23 -10 -11 -11 -10 -6 3 3 9 -1 22 -9 29 -16 13 -13 30 6
30 5 0 8 -6 5 -14z m33 -6 c0 -5 -2 -10 -4 -10 -3 0 -8 5 -11 10 -3 6 -1 10 4
10 6 0 11 -4 11 -10z m90 -10 c0 -5 -2 -10 -4 -10 -3 0 -8 5 -11 10 -3 6 -1
10 4 10 6 0 11 -4 11 -10z m43 -39 c-9 -12 -23 18 -16 35 6 17 8 17 13 -6 4
-14 5 -27 3 -29z m-740 24 c-3 -9 -8 -14 -10 -11 -3 3 -2 9 2 15 9 16 15 13 8
-4z m1039 6 c37 -9 68 -31 68 -50 0 -5 9 -13 20 -16 11 -3 20 -11 20 -17 0 -5
13 -29 28 -52 44 -65 44 -65 22 -59 -11 3 -20 9 -20 14 0 5 -21 14 -46 20 -25
7 -48 18 -51 25 -3 8 -13 14 -23 14 -27 0 -33 16 -14 34 15 15 11 21 -11 16
-5 -1 -25 -4 -43 -5 -40 -4 -52 -13 -32 -25 9 -6 17 -5 22 3 5 8 12 6 22 -8
20 -26 20 -55 1 -55 -8 0 -15 9 -15 20 0 13 -9 22 -25 26 -15 4 -25 13 -25 24
0 28 -11 50 -25 50 -7 0 -18 6 -24 14 -16 19 10 27 62 21 25 -4 36 -2 32 5 -7
12 8 12 57 1z m-6836 -12 c3 -6 15 -8 27 -5 11 3 41 1 66 -4 85 -17 206 -39
231 -44 30 -5 85 -24 120 -41 14 -7 38 -15 53 -19 15 -4 57 -27 93 -51 36 -25
67 -45 70 -45 8 0 34 -22 91 -77 30 -29 60 -53 68 -53 7 0 15 -4 17 -8 2 -4
17 -18 35 -30 20 -14 30 -28 26 -37 -3 -8 0 -15 7 -15 6 0 9 -4 6 -9 -3 -5
-16 -7 -28 -3 -17 4 -20 2 -15 -13 4 -9 2 -24 -4 -31 -6 -7 -8 -18 -4 -24 3
-5 1 -10 -4 -10 -6 0 -11 8 -11 17 0 14 -2 15 -12 4 -11 -10 -9 -15 5 -26 18
-13 18 -14 -3 -25 -12 -7 -33 -10 -46 -7 -13 2 -24 1 -24 -4 0 -4 -34 -7 -75
-6 l-75 2 -143 146 c-161 166 -230 213 -347 238 -19 4 -45 13 -57 19 -12 7
-32 12 -45 12 -25 0 -93 22 -104 33 -22 22 -125 -14 -199 -69 -55 -40 -142
-82 -168 -81 -20 2 -23 5 -14 16 8 9 12 10 15 2 4 -13 32 -15 32 -2 0 5 -6 11
-12 13 -7 3 0 13 17 24 17 10 36 24 43 31 7 7 17 13 21 13 5 0 20 11 35 25 14
13 47 37 72 52 25 15 58 36 72 45 15 10 34 20 42 23 8 4 26 12 40 20 31 16 77
19 86 4z m6624 -29 c0 -5 -8 -10 -17 -10 -15 0 -16 2 -3 10 19 12 20 12 20 0z
m-220 -4 c0 -3 -4 -8 -10 -11 -5 -3 -10 -1 -10 4 0 6 5 11 10 11 6 0 10 -2 10
-4z m-592 -20 c-10 -7 -15 -16 -11 -19 3 -4 1 -7 -5 -7 -14 0 -14 2 -6 24 3 9
14 16 23 16 14 -1 14 -2 -1 -14z m-382 -56 c135 -19 262 -43 303 -56 24 -7 47
-12 51 -9 5 3 19 1 32 -4 20 -9 19 -10 -17 -12 -52 -2 -69 1 -73 12 -2 5 -8 6
-14 3 -6 -4 -5 -9 3 -14 10 -7 10 -12 0 -23 -8 -10 -9 -17 -1 -22 5 -3 10 1
10 9 0 13 15 15 89 15 77 -1 90 -4 94 -19 6 -25 -11 -40 -47 -40 -17 0 -40 -8
-51 -16 -19 -15 -17 -16 30 -9 171 23 209 31 188 39 -13 4 -28 4 -33 1 -15
-10 -65 4 -54 14 12 12 106 31 148 31 36 0 89 23 117 51 19 19 54 16 77 -8 7
-7 20 -13 27 -13 19 0 85 -40 85 -51 0 -5 9 -9 21 -9 11 0 29 -4 39 -10 13 -7
19 -6 24 5 3 8 1 17 -5 20 -5 4 -7 10 -4 15 3 5 1 12 -5 15 -6 4 -8 16 -4 28
6 22 6 22 -9 2 -11 -15 -12 -22 -4 -27 15 -9 4 -10 -17 -2 -14 5 -14 9 4 34
11 15 16 31 12 35 -4 5 6 -1 22 -13 16 -12 37 -22 46 -22 27 0 38 -20 45 -85
8 -82 8 -83 7 -143 l-2 -53 -137 3 c-105 2 -137 6 -141 17 -2 7 -13 22 -23 32
-11 11 -19 22 -19 26 0 16 -52 73 -62 67 -6 -4 -7 -9 0 -13 13 -8 82 -118 82
-131 0 -13 -17 -13 -22 1 -2 5 -11 7 -21 3 -31 -12 -13 -27 36 -29 26 -1 50
-5 53 -8 12 -11 -5 -37 -30 -47 -30 -11 -229 -15 -246 -5 -7 4 -15 2 -19 -4
-19 -30 -257 -39 -285 -11 -6 6 -65 10 -134 10 -103 0 -123 2 -113 14 8 9 8
21 0 44 -16 46 -8 57 24 32 19 -15 35 -20 50 -15 12 3 48 10 80 14 50 6 57 5
57 -10 0 -9 7 -30 16 -45 11 -22 15 -24 13 -9 -3 40 1 54 19 58 14 4 13 6 -6
12 -17 6 -21 13 -16 27 4 15 -1 22 -25 31 -17 6 -31 17 -31 23 0 7 -7 14 -15
18 -8 3 -15 16 -15 28 0 24 -14 41 -93 112 -39 34 -60 45 -108 54 -38 7 -69 8
-84 2 -15 -6 -27 -6 -30 0 -4 6 2 10 12 11 10 0 13 3 6 5 -8 4 -7 11 5 24 10
13 18 16 23 9 3 -6 33 -15 65 -19z m395 11 c-8 -5 -20 -7 -28 -4 -21 8 -15 13
15 13 20 0 23 -3 13 -9z m709 -42 c0 -5 -7 -9 -15 -9 -15 0 -20 12 -9 23 8 8
24 -1 24 -14z m45 1 c3 -5 1 -10 -4 -10 -6 0 -11 5 -11 10 0 6 2 10 4 10 3 0
8 -4 11 -10z m170 0 c3 -5 1 -10 -4 -10 -6 0 -11 5 -11 10 0 6 2 10 4 10 3 0
8 -4 11 -10z m115 -26 c0 -8 4 -12 10 -9 5 3 19 1 30 -5 18 -10 19 -13 5 -26
-16 -16 -39 -9 -69 22 -22 21 -20 34 4 34 11 0 20 -7 20 -16z m-1430 -9 c0
-10 -11 -15 -35 -15 -24 0 -35 5 -35 15 0 10 11 15 35 15 24 0 35 -5 35 -15z
m1239 8 c0 -5 -4 -17 -9 -28 -8 -18 -9 -17 -9 8 -1 15 4 27 9 27 6 0 10 -3 9
-7z m87 -18 c9 -8 11 -15 6 -15 -5 0 -15 7 -22 15 -7 8 -9 15 -6 15 4 0 14 -7
22 -15z m219 -56 c0 -22 -4 -24 -64 -27 -77 -4 -103 12 -37 22 26 4 44 12 40
17 -3 5 0 17 7 25 10 12 15 13 33 1 12 -8 21 -25 21 -38z m-1647 14 c2 -8 -6
-13 -22 -13 -17 0 -26 5 -26 16 0 19 41 16 48 -3z m111 -7 c9 -11 6 -15 -16
-19 -29 -5 -63 7 -63 23 0 15 66 12 79 -4z m1241 -8 c0 -5 -5 -6 -11 -2 -7 4
-9 -2 -7 -17 2 -19 8 -23 28 -21 14 2 30 8 36 13 6 5 14 6 17 2 13 -13 7 -21
-20 -26 -70 -14 -68 -15 -71 30 -3 35 0 42 12 37 9 -3 16 -10 16 -16z m165 12
c3 -5 1 -10 -4 -10 -6 0 -11 5 -11 10 0 6 2 10 4 10 3 0 8 -4 11 -10z m-1391
-55 c8 -9 23 -29 33 -45 9 -17 25 -32 34 -35 10 -3 23 -12 29 -20 22 -26 -18
-18 -45 9 -13 13 -25 22 -27 20 -2 -2 -21 12 -43 31 -21 19 -46 35 -54 35 -14
0 -14 1 -1 10 22 14 57 12 74 -5z m-1903 -136 c4 -74 5 -141 3 -150 -6 -22
-27 -27 -100 -21 l-62 4 19 52 c10 28 28 76 39 106 12 30 26 68 30 84 11 35
39 68 54 63 7 -2 14 -57 17 -138z m1854 85 c33 -33 27 -49 -16 -48 -54 3 -119
16 -125 26 -11 17 18 37 59 41 23 2 45 4 49 5 4 1 19 -10 33 -24z m-5230 -14
c3 -5 1 -10 -4 -10 -6 0 -11 5 -11 10 0 6 2 10 4 10 3 0 8 -4 11 -10z m6666
-37 c1 -17 2 -17 6 0 2 9 9 17 15 17 5 0 8 -7 5 -15 -4 -8 -2 -17 3 -20 6 -4
10 1 10 9 0 9 7 16 15 16 21 0 19 -27 -6 -58 -19 -24 -21 -25 -15 -5 7 21 5
22 -44 18 -27 -2 -50 1 -50 6 0 5 10 9 22 9 45 0 8 10 -50 14 -37 2 -62 0 -62
-6 0 -6 11 -7 26 -4 19 5 25 3 22 -6 -3 -7 -23 -14 -47 -15 -26 -2 -40 1 -36
7 3 6 1 10 -5 10 -13 0 -4 -37 14 -59 9 -12 8 -12 -11 0 -13 8 -23 19 -23 26
0 6 -3 18 -6 26 -3 9 3 17 18 22 13 4 32 11 43 15 11 5 50 8 88 9 57 1 67 -2
68 -16z m-1394 -130 c-10 -10 -20 -11 -45 -2 -43 15 -41 26 3 21 20 -2 35 0
34 4 -5 26 3 36 12 15 7 -18 6 -28 -4 -38z m-5082 38 c3 -5 1 -12 -5 -16 -5
-3 -10 1 -10 9 0 18 6 21 15 7z m6130 -2 c4 -6 12 -8 19 -6 6 3 18 -2 26 -11
12 -14 11 -15 -11 -9 -13 4 -46 7 -72 7 -41 0 -46 2 -35 15 15 17 64 20 73 4z
m392 -11 c-3 -8 -6 -5 -6 6 -1 11 2 17 5 13 3 -3 4 -12 1 -19z m-47 0 c16 -1
30 -5 30 -11 0 -5 -10 -7 -22 -3 -13 3 -35 6 -50 6 -16 0 -28 5 -28 11 0 6 9
8 20 4 11 -3 33 -7 50 -7z"/>
<path d="M4084 7327 c-14 -16 -7 -37 13 -37 13 0 13 3 3 15 -9 10 -9 15 -1 15
6 0 11 5 11 10 0 14 -13 12 -26 -3z"/>
<path d="M4082 7215 c-1 -20 2 -34 7 -31 5 4 12 0 14 -6 3 -7 6 2 6 20 1 17 1
35 2 40 0 4 -6 8 -13 10 -8 1 -14 -10 -16 -33z"/>
<path d="M3192 6635 c7 -8 108 -9 115 -1 3 3 -22 6 -57 6 -35 0 -61 -2 -58 -5z"/>
<path d="M3023 6583 c15 -2 37 -2 50 0 12 2 0 4 -28 4 -27 0 -38 -2 -22 -4z"/>
<path d="M2200 6470 c0 -5 5 -10 11 -10 5 0 7 5 4 10 -3 6 -8 10 -11 10 -2 0
-4 -4 -4 -10z"/>
<path d="M5605 6380 c11 -5 31 -9 45 -9 23 0 23 1 5 9 -11 5 -31 9 -45 9 -23
0 -23 -1 -5 -9z"/>
<path d="M4070 6280 c-8 -5 -12 -11 -10 -14 3 -2 14 2 24 10 22 15 10 19 -14
4z"/>
<path d="M5235 6060 c4 -6 11 -8 16 -5 14 9 11 15 -7 15 -8 0 -12 -5 -9 -10z"/>
<path d="M5687 5144 c-8 -8 3 -34 14 -34 5 0 9 9 9 20 0 19 -11 26 -23 14z"/>
<path d="M6046 4915 c4 -11 -1 -15 -17 -16 -13 0 -18 -3 -11 -6 21 -8 13 -25
-9 -18 -15 5 -20 3 -17 -6 3 -8 20 -17 39 -20 19 -3 47 -11 62 -18 32 -12 117
-11 117 3 0 4 7 6 15 3 8 -4 17 -2 20 3 7 12 -43 50 -66 50 -11 0 -19 4 -19 9
0 5 -23 14 -50 20 -66 14 -70 14 -64 -4z m79 -55 c18 -8 17 -9 -7 -9 -15 -1
-30 4 -33 9 -7 12 12 12 40 0z"/>
<path d="M3823 4709 c14 -8 22 -8 30 0 8 8 3 11 -18 11 -26 -1 -28 -2 -12 -11z"/>
<path d="M280 6110 c0 -5 5 -10 10 -10 6 0 10 5 10 10 0 6 -4 10 -10 10 -5 0
-10 -4 -10 -10z"/>
<path d="M380 6110 c0 -5 5 -10 10 -10 6 0 10 5 10 10 0 6 -4 10 -10 10 -5 0
-10 -4 -10 -10z"/>
<path d="M440 5989 c0 -5 5 -7 10 -4 6 3 10 8 10 11 0 2 -4 4 -10 4 -5 0 -10
-5 -10 -11z"/>
<path d="M531 5917 c1 -49 4 -55 16 -45 10 8 13 22 8 47 -11 61 -25 60 -24 -2z"/>
<path d="M50 6464 c0 -17 22 -14 28 4 2 7 -3 12 -12 12 -9 0 -16 -7 -16 -16z"/>
<path d="M1360 5789 c0 -12 5 -19 12 -17 18 6 20 25 3 31 -10 5 -15 0 -15 -14z"/>
<path d="M1355 5732 c3 -7 5 -29 5 -48 0 -23 5 -34 14 -34 17 0 29 -56 42
-190 1 -19 4 -36 5 -37 1 -2 3 -7 4 -13 1 -5 3 -11 5 -12 9 -12 5 -38 -6 -38
-8 0 -14 6 -14 13 0 21 -39 17 -54 -5 -8 -11 -19 -17 -25 -13 -7 3 -20 -4 -31
-17 -12 -14 -18 -17 -14 -7 3 10 1 20 -4 23 -5 3 -12 -3 -15 -13 -4 -17 -12
-18 -73 -14 -38 3 -91 11 -118 19 -59 17 -66 17 -66 4 0 -5 16 -12 36 -16 19
-3 57 -17 84 -30 26 -13 61 -26 77 -29 15 -4 42 -13 58 -20 17 -8 42 -16 56
-19 37 -8 68 -39 75 -74 4 -21 11 -29 20 -25 11 4 13 15 8 39 -5 28 -4 33 9
28 8 -3 18 -17 21 -30 4 -14 11 -22 16 -19 13 8 13 52 0 60 -16 10 -12 23 8
29 10 4 19 13 19 21 0 10 -6 13 -17 10 -15 -5 -17 4 -19 67 -1 79 -21 196 -54
325 -17 66 -25 81 -39 80 -11 -1 -16 -7 -13 -15z m85 -406 c0 -3 -4 -8 -10
-11 -5 -3 -10 -1 -10 4 0 6 5 11 10 11 6 0 10 -2 10 -4z"/>
<path d="M1435 5100 c4 -6 11 -8 16 -5 14 9 11 15 -7 15 -8 0 -12 -5 -9 -10z"/>
<path d="M1446 5061 c-4 -7 -5 -15 -2 -18 9 -9 19 4 14 18 -4 11 -6 11 -12 0z"/>
<path d="M1446 5015 c-3 -8 -1 -15 3 -15 5 0 11 7 15 15 3 8 1 15 -3 15 -5 0
-11 -7 -15 -15z"/>
<path d="M820 4320 c0 -11 2 -20 5 -20 2 0 9 9 15 20 9 16 8 20 -5 20 -8 0
-15 -9 -15 -20z"/>
<path d="M755 4260 c3 -5 8 -10 11 -10 2 0 4 5 4 10 0 6 -5 10 -11 10 -5 0 -7
-4 -4 -10z"/>
<path d="M76 4335 c16 -24 34 -33 34 -17 0 8 -37 42 -45 42 -3 0 2 -11 11 -25z"/>
<path d="M1468 4393 c-21 -2 -38 -8 -38 -12 0 -4 17 -7 38 -5 20 2 43 3 50 3
7 1 10 6 7 11 -3 6 -9 9 -13 8 -4 -1 -24 -3 -44 -5z"/>
<path d="M1322 4360 c-23 -21 -30 -50 -12 -50 6 0 10 5 10 11 0 6 9 8 20 4 17
-5 20 -2 20 24 0 36 -8 38 -38 11z"/>
<path d="M1397 4373 c-2 -5 0 -21 4 -38 7 -29 7 -29 8 8 1 35 -3 46 -12 30z"/>
<path d="M1242 4328 c6 -18 28 -21 28 -4 0 9 -7 16 -16 16 -9 0 -14 -5 -12
-12z"/>
<path d="M1441 4324 c0 -11 3 -14 6 -6 3 7 2 16 -1 19 -3 4 -6 -2 -5 -13z"/>
<path d="M1098 4228 c-15 -23 -15 -25 3 -36 25 -16 34 -15 20 2 -7 8 -8 16 -3
18 5 1 6 11 3 22 -7 17 -8 17 -23 -6z"/>
<path d="M1200 4225 c0 -8 5 -15 10 -15 6 0 10 7 10 15 0 8 -4 15 -10 15 -5 0
-10 -7 -10 -15z"/>
<path d="M221 4143 c0 -10 3 -13 5 -6 3 7 12 9 21 6 11 -4 14 -2 9 5 -11 18
-36 14 -35 -5z"/>
<path d="M288 4133 c7 -3 16 -2 19 1 4 3 -2 6 -13 5 -11 0 -14 -3 -6 -6z"/>
<path d="M1565 4000 c3 -5 10 -10 16 -10 5 0 9 5 9 10 0 6 -7 10 -16 10 -8 0
-12 -4 -9 -10z"/>
<path d="M7616 4100 c-15 -5 -16 -9 -7 -14 7 -5 18 -3 24 3 14 14 6 20 -17 11z"/>
<path d="M7720 4100 c-37 -6 -40 -7 -13 -8 17 -1 39 -5 49 -9 13 -5 15 -3 9 8
-5 8 -1 7 12 -4 21 -18 35 -14 26 9 -5 15 -12 15 -83 4z"/>
<path d="M7560 4090 c0 -5 4 -10 9 -10 6 0 13 5 16 10 3 6 -1 10 -9 10 -9 0
-16 -4 -16 -10z"/>
<path d="M7510 4080 c0 -5 5 -10 10 -10 6 0 10 5 10 10 0 6 -4 10 -10 10 -5 0
-10 -4 -10 -10z"/>
<path d="M391 3916 c-7 -8 -8 -17 -3 -20 6 -3 12 3 15 14 6 24 4 25 -12 6z"/>
<path d="M340 3909 c0 -5 5 -7 10 -4 6 3 10 8 10 11 0 2 -4 4 -10 4 -5 0 -10
-5 -10 -11z"/>
<path d="M381 3883 l-23 -5 22 -15 c19 -13 24 -13 31 -2 11 17 11 29 2 28 -5
-1 -19 -4 -32 -6z"/>
<path d="M285 3860 c3 -5 8 -10 11 -10 2 0 4 5 4 10 0 6 -5 10 -11 10 -5 0 -7
-4 -4 -10z"/>
<path d="M6398 3702 c-15 -29 -13 -56 2 -47 5 3 6 13 3 22 -4 10 -2 14 4 10 6
-4 14 0 17 9 16 42 -6 47 -26 6z"/>
<path d="M6320 3680 c0 -5 5 -10 11 -10 5 0 7 5 4 10 -3 6 -8 10 -11 10 -2 0
-4 -4 -4 -10z"/>
<path d="M6261 3504 c0 -11 3 -14 6 -6 3 7 2 16 -1 19 -3 4 -6 -2 -5 -13z"/>
<path d="M752 2664 c-11 -23 -10 -24 8 -14 21 11 26 25 11 34 -4 3 -13 -6 -19
-20z"/>
<path d="M717 2643 c-10 -9 -9 -23 1 -23 5 0 9 7 9 15 0 17 -1 18 -10 8z"/>
<path d="M857 2603 c-12 -12 -7 -53 6 -53 8 0 14 12 14 30 0 29 -7 37 -20 23z"/>
<path d="M697 2594 c-8 -8 1 -24 14 -24 5 0 9 7 9 15 0 15 -12 20 -23 9z"/>
<path d="M745 2570 c-3 -5 1 -10 9 -10 9 0 16 5 16 10 0 6 -4 10 -9 10 -6 0
-13 -4 -16 -10z"/>
<path d="M630 2550 c-12 -8 -9 -10 13 -10 15 0 27 5 27 10 0 13 -20 13 -40 0z"/>
<path d="M1490 3174 c0 -14 4 -23 9 -20 5 3 7 15 4 26 -7 28 -13 25 -13 -6z"/>
<path d="M1390 3080 c0 -5 5 -10 10 -10 6 0 10 5 10 10 0 6 -4 10 -10 10 -5 0
-10 -4 -10 -10z"/>
<path d="M5844 2264 c-18 -14 -18 -15 4 -4 12 6 22 13 22 15 0 8 -5 6 -26 -11z"/>
<path d="M1010 2496 c0 -20 -40 -32 -51 -15 -8 14 -14 4 -9 -16 13 -59 -3
-165 -26 -178 -8 -4 -13 -18 -13 -30 1 -14 3 -16 6 -6 2 8 17 23 33 33 24 14
30 25 32 54 1 20 2 47 3 59 0 13 6 28 13 35 7 7 12 19 12 28 0 9 5 21 11 27 8
8 8 13 0 17 -6 4 -11 0 -11 -8z"/>
<path d="M768 2442 c-16 -2 -28 -10 -28 -18 0 -16 16 -19 25 -4 10 17 25 11
25 -10 0 -15 7 -20 28 -20 39 0 57 13 38 29 -10 8 -16 9 -21 1 -4 -7 -12 -4
-23 8 -11 11 -27 17 -44 14z"/>
<path d="M888 2414 c-13 -20 3 -64 24 -64 7 0 7 4 0 13 -5 6 -12 23 -14 37 -1
14 -6 20 -10 14z"/>
<path d="M846 2381 c-4 -6 -3 -19 3 -28 9 -17 10 -17 17 0 8 21 -10 45 -20 28z"/>
<path d="M772 2368 c-17 -17 -15 -33 2 -19 11 9 15 9 19 -1 2 -7 8 -10 12 -6
9 9 -1 38 -13 38 -4 0 -13 -5 -20 -12z"/>
<path d="M50 2354 c0 -30 11 -64 21 -64 14 0 10 43 -6 64 -15 20 -15 20 -15 0z"/>
<path d="M833 2323 c-20 -8 -15 -23 7 -23 11 0 20 7 20 15 0 15 -6 17 -27 8z"/>
<path d="M901 2321 c-8 -5 -9 -11 -3 -15 5 -3 12 1 16 9 6 17 6 18 -13 6z"/>
<path d="M783 2314 c4 -4 1 -14 -6 -22 -10 -13 -9 -15 6 -9 10 4 21 7 23 7 12
0 2 19 -13 24 -10 4 -14 4 -10 0z"/>
<path d="M886 2271 c-4 -7 -5 -15 -2 -18 9 -9 19 4 14 18 -4 11 -6 11 -12 0z"/>
<path d="M1820 2600 c0 -5 5 -10 10 -10 6 0 10 5 10 10 0 6 -4 10 -10 10 -5 0
-10 -4 -10 -10z"/>
<path d="M1760 2590 c0 -5 5 -10 10 -10 6 0 10 5 10 10 0 6 -4 10 -10 10 -5 0
-10 -4 -10 -10z"/>
<path d="M1717 2560 c3 -11 9 -17 15 -14 5 3 4 12 -3 20 -16 19 -18 18 -12 -6z"/>
<path d="M1575 2498 c-3 -7 -1 -26 4 -43 9 -29 9 -29 10 13 1 41 -5 54 -14 30z"/>
<path d="M1861 2464 c0 -11 3 -14 6 -6 3 7 2 16 -1 19 -3 4 -6 -2 -5 -13z"/>
<path d="M1761 2407 c-1 -20 -5 -26 -13 -21 -9 5 -8 2 1 -10 20 -24 32 -7 22
29 l-9 30 -1 -28z"/>
<path d="M1717 2373 c-4 -3 -7 -11 -7 -17 0 -6 5 -5 12 2 6 6 9 14 7 17 -3 3
-9 2 -12 -2z"/>
<path d="M1810 2370 c0 -5 6 -10 13 -10 6 0 24 -7 40 -14 29 -16 35 -12 14 8
-17 17 -67 29 -67 16z"/>
<path d="M1660 2310 c0 -5 5 -10 10 -10 6 0 10 5 10 10 0 6 -4 10 -10 10 -5 0
-10 -4 -10 -10z"/>
<path d="M1300 2620 c0 -5 5 -10 11 -10 5 0 7 5 4 10 -3 6 -8 10 -11 10 -2 0
-4 -4 -4 -10z"/>
<path d="M1403 2619 c-6 -6 -17 -11 -24 -12 -23 -4 -39 -17 -39 -33 0 -8 5
-14 11 -14 6 0 9 6 6 13 -4 10 3 12 23 9 22 -3 30 1 35 18 8 25 3 34 -12 19z"/>
<path d="M1440 2610 c0 -5 5 -10 11 -10 5 0 7 5 4 10 -3 6 -8 10 -11 10 -2 0
-4 -4 -4 -10z"/>
<path d="M1270 2600 c0 -5 5 -10 10 -10 6 0 10 5 10 10 0 6 -4 10 -10 10 -5 0
-10 -4 -10 -10z"/>
<path d="M1333 2536 c3 -8 1 -17 -6 -20 -7 -2 -2 -5 11 -5 13 -1 20 -5 17 -11
-3 -5 -1 -10 4 -10 13 0 13 2 1 34 -5 14 -15 26 -21 26 -6 0 -9 -6 -6 -14z"/>
<path d="M1388 2515 c-2 -20 1 -40 7 -45 9 -7 12 3 13 35 0 53 -14 60 -20 10z"/>
<path d="M1446 2515 c5 -13 4 -16 -4 -11 -7 4 -12 1 -12 -8 0 -23 15 -27 28
-6 9 14 8 21 -4 31 -12 10 -13 9 -8 -6z"/>
<path d="M1177 2523 c-4 -3 -7 -11 -7 -17 0 -6 5 -5 12 2 6 6 9 14 7 17 -3 3
-9 2 -12 -2z"/>
<path d="M1200 2495 c0 -8 7 -15 15 -15 8 0 15 7 15 15 0 8 -7 15 -15 15 -8 0
-15 -7 -15 -15z"/>
<path d="M1160 2378 c-1 -5 -3 -11 -4 -15 -1 -5 -5 -14 -10 -21 -10 -17 -4
-23 13 -13 7 5 11 19 8 32 -2 13 -5 21 -7 17z"/>
<path d="M1160 2284 c0 -21 4 -33 10 -29 12 7 10 65 -2 65 -4 0 -8 -16 -8 -36z"/>
<path d="M1212 2220 c0 -14 2 -19 5 -12 2 6 2 18 0 25 -3 6 -5 1 -5 -13z"/>
<path d="M1373 2242 c-18 -9 -33 -20 -33 -26 0 -6 5 -5 12 2 7 7 21 12 33 12
11 0 29 7 39 15 20 15 20 15 0 14 -10 -1 -34 -9 -51 -17z"/>
<path d="M260 2146 c0 -22 17 -28 40 -14 28 18 25 28 -10 28 -19 0 -30 -5 -30
-14z"/>
<path d="M405 2151 c-7 -12 12 -24 25 -16 11 7 4 25 -10 25 -5 0 -11 -4 -15
-9z"/>
<path d="M194 2115 c-10 -8 -27 -15 -36 -15 -10 0 -18 -7 -18 -15 0 -8 -4 -15
-10 -15 -12 0 -80 -68 -80 -80 0 -6 7 -10 15 -10 8 0 15 4 15 9 0 5 8 12 18
15 9 4 39 26 66 51 27 25 55 45 63 45 8 0 12 -4 9 -9 -3 -5 0 -14 8 -20 21
-17 28 12 10 38 -18 25 -33 26 -60 6z"/>
<path d="M313 2088 c-4 -7 -8 -15 -9 -18 -6 -33 -18 -60 -27 -60 -8 0 -7 -4 1
-12 16 -16 59 31 66 72 4 31 -15 43 -31 18z"/>
<path d="M24 1950 c0 -52 1 -74 3 -47 2 26 2 68 0 95 -2 26 -3 4 -3 -48z"/>
<path d="M253 1975 c-7 -8 -13 -19 -13 -24 0 -6 -20 -35 -45 -65 -46 -56 -57
-83 -31 -73 8 3 16 1 18 -5 2 -6 12 4 21 23 22 43 39 69 55 87 6 7 12 19 12
27 0 7 3 20 6 29 8 20 -7 20 -23 1z"/>
<path d="M60 1901 c0 -6 5 -13 10 -16 6 -3 10 1 10 9 0 9 -4 16 -10 16 -5 0
-10 -4 -10 -9z"/>
<path d="M73 1863 c-17 -6 -17 -20 0 -26 8 -3 13 3 13 14 0 11 0 19 -1 18 0 0
-6 -3 -12 -6z"/>
<path d="M110 1850 c0 -5 5 -10 10 -10 6 0 10 5 10 10 0 6 -4 10 -10 10 -5 0
-10 -4 -10 -10z"/>
<path d="M341 1844 c0 -11 3 -14 6 -6 3 7 2 16 -1 19 -3 4 -6 -2 -5 -13z"/>
<path d="M388 1833 c-19 -5 -24 -28 -9 -38 13 -7 59 14 65 31 3 8 1 14 -3 14
-5 0 -11 -7 -15 -15 -3 -8 -10 -15 -17 -15 -6 0 -9 7 -5 15 3 8 4 14 3 14 -1
-1 -10 -3 -19 -6z"/>
<path d="M295 1794 c-8 -13 -15 -28 -15 -34 0 -5 -5 -10 -11 -10 -6 0 -8 -9
-4 -20 5 -14 2 -20 -9 -20 -9 0 -16 -4 -16 -10 0 -14 12 -12 39 6 18 13 20 18
10 26 -11 7 -11 11 -1 15 6 2 12 11 12 19 0 8 6 14 14 14 8 0 17 7 20 16 8 21
8 21 -9 21 -8 0 -22 -11 -30 -23z"/>
<path d="M351 1784 c0 -11 3 -14 6 -6 3 7 2 16 -1 19 -3 4 -6 -2 -5 -13z"/>
<path d="M436 1782 c-3 -6 -3 -25 1 -43 l7 -34 7 35 c7 34 -3 62 -15 42z"/>
<path d="M374 1765 c-4 -8 -10 -15 -16 -15 -10 0 -38 -25 -38 -33 0 -3 11 -7
25 -9 20 -4 25 -1 25 14 0 11 9 22 20 25 11 3 20 12 20 19 0 19 -29 18 -36 -1z"/>
<path d="M70 1710 c0 -11 4 -20 9 -20 5 0 7 9 4 20 -3 11 -7 20 -9 20 -2 0 -4
-9 -4 -20z"/>
<path d="M61 1638 c-1 -24 4 -38 12 -38 8 0 9 -3 1 -8 -13 -8 -15 -72 -2 -72
4 0 8 15 9 33 1 17 2 49 3 70 2 21 -1 33 -5 26 -5 -8 -8 -6 -12 7 -2 10 -5 2
-6 -18z"/>
<path d="M368 1653 c7 -3 16 -2 19 1 4 3 -2 6 -13 5 -11 0 -14 -3 -6 -6z"/>
<path d="M850 1629 c0 -27 2 -30 15 -19 11 9 12 17 4 31 -14 27 -19 24 -19
-12z"/>
<path d="M240 1619 c0 -5 5 -7 10 -4 6 3 10 8 10 11 0 2 -4 4 -10 4 -5 0 -10
-5 -10 -11z"/>
<path d="M110 1579 c0 -5 5 -7 10 -4 6 3 10 8 10 11 0 2 -4 4 -10 4 -5 0 -10
-5 -10 -11z"/>
<path d="M158 1563 c7 -3 16 -2 19 1 4 3 -2 6 -13 5 -11 0 -14 -3 -6 -6z"/>
<path d="M1130 2049 c0 -5 5 -7 10 -4 6 3 10 8 10 11 0 2 -4 4 -10 4 -5 0 -10
-5 -10 -11z"/>
<path d="M587 1579 c7 -7 15 -10 18 -7 3 3 -2 9 -12 12 -14 6 -15 5 -6 -5z"/>
<path d="M890 1430 c-13 -8 -12 -10 3 -10 9 0 17 5 17 10 0 12 -1 12 -20 0z"/>
<path d="M7757 1154 c22 -11 42 -14 60 -9 l28 8 -30 7 c-16 4 -43 8 -60 9
l-30 1 32 -16z"/>
<path d="M7190 1120 c0 -5 4 -10 9 -10 6 0 13 5 16 10 3 6 -1 10 -9 10 -9 0
-16 -4 -16 -10z"/>
<path d="M7230 1120 c0 -5 5 -10 10 -10 6 0 10 5 10 10 0 6 -4 10 -10 10 -5 0
-10 -4 -10 -10z"/>
<path d="M7330 1070 c0 -5 5 -10 10 -10 6 0 10 5 10 10 0 6 -4 10 -10 10 -5 0
-10 -4 -10 -10z"/>
<path d="M5291 996 c-9 -11 -6 -12 14 -8 14 2 22 8 19 13 -8 13 -20 11 -33 -5z"/>
<path d="M5380 990 c0 -5 5 -10 10 -10 6 0 10 5 10 10 0 6 -4 10 -10 10 -5 0
-10 -4 -10 -10z"/>
<path d="M5338 973 c6 -2 18 -2 25 0 6 3 1 5 -13 5 -14 0 -19 -2 -12 -5z"/>
<path d="M5017 923 c-3 -5 4 -15 16 -23 21 -12 21 -12 7 6 -8 10 -15 20 -16
22 -1 2 -4 -1 -7 -5z"/>
<path d="M7886 851 c-3 -4 6 -6 19 -3 14 2 25 6 25 8 0 8 -39 4 -44 -5z"/>
<path d="M7302 757 c-7 -8 -7 -18 -2 -27 8 -13 10 -12 10 3 0 13 5 16 24 11
26 -6 44 10 25 22 -8 4 -9 3 -5 -4 4 -7 1 -12 -9 -12 -9 0 -13 5 -10 10 9 15
-21 12 -33 -3z"/>
<path d="M7177 743 c-10 -9 -9 -23 2 -23 5 0 11 7 15 15 5 15 -5 20 -17 8z"/>
<path d="M6040 610 c0 -5 7 -10 15 -10 8 0 15 5 15 10 0 6 -7 10 -15 10 -8 0
-15 -4 -15 -10z"/>
<path d="M5981 583 c9 -2 22 -15 29 -28 7 -14 19 -25 26 -25 7 0 18 -8 23 -17
9 -16 10 -14 11 9 0 18 -6 29 -19 33 -11 3 -22 12 -25 20 -3 9 -17 15 -33 14
-15 -1 -21 -3 -12 -6z"/>
<path d="M6045 480 c3 -5 10 -10 16 -10 5 0 9 5 9 10 0 6 -7 10 -16 10 -8 0
-12 -4 -9 -10z"/>
<path d="M6140 440 c0 -5 5 -10 10 -10 6 0 10 5 10 10 0 6 -4 10 -10 10 -5 0
-10 -4 -10 -10z"/>
<path d="M6264 255 c7 -20 -20 -45 -52 -45 -18 0 -23 -3 -15 -11 10 -10 103 7
103 20 -1 24 -15 51 -27 51 -9 0 -13 -6 -9 -15z"/>
<path d="M7005 700 c-3 -5 -1 -10 4 -10 6 0 11 5 11 10 0 6 -2 10 -4 10 -3 0
-8 -4 -11 -10z"/>
<path d="M7190 610 c-8 -5 -12 -12 -9 -15 4 -3 12 1 19 10 14 17 11 19 -10 5z"/>
<path d="M7930 571 c0 -6 5 -11 10 -11 6 0 10 -7 10 -15 0 -8 -5 -15 -11 -15
-5 0 -7 -5 -3 -11 4 -7 12 -6 23 5 12 12 13 21 5 33 -13 20 -34 29 -34 14z"/>
<path d="M725 410 c-3 -5 -1 -10 4 -10 6 0 11 5 11 10 0 6 -2 10 -4 10 -3 0
-8 -4 -11 -10z"/>
<path d="M660 380 c0 -5 5 -10 11 -10 5 0 7 5 4 10 -3 6 -8 10 -11 10 -2 0 -4
-4 -4 -10z"/>
<path d="M1880 165 c0 -2 9 -9 20 -15 16 -9 18 -8 14 5 -5 13 -34 22 -34 10z"/>
<path d="M6740 440 c0 -5 7 -10 16 -10 8 0 12 5 9 10 -3 6 -10 10 -16 10 -5 0
-9 -4 -9 -10z"/>
<path d="M7555 430 c3 -5 8 -10 11 -10 2 0 4 5 4 10 0 6 -5 10 -11 10 -5 0 -7
-4 -4 -10z"/>
<path d="M6748 333 c7 -3 16 -2 19 1 4 3 -2 6 -13 5 -11 0 -14 -3 -6 -6z"/>
<path d="M6782 319 c3 -8 13 -16 24 -18 10 -2 22 -8 25 -13 3 -5 9 0 12 11 4
16 0 21 -13 21 -10 0 -26 3 -36 7 -12 4 -15 2 -12 -8z"/>
<path d="M7089 208 c-2 -77 0 -90 13 -103 6 -7 14 -3 24 9 8 12 10 22 5 26 -6
3 -11 32 -13 64 -4 85 -28 88 -29 4z"/>
<path d="M6831 248 c0 -9 -4 -18 -8 -21 -5 -2 -2 -2 5 -1 6 2 12 -1 12 -7 0
-6 7 -9 15 -5 8 3 15 1 15 -4 0 -6 5 -10 10 -10 20 0 9 20 -14 26 -14 3 -27
13 -29 22 -4 16 -5 16 -6 0z"/>
<path d="M6925 250 c-3 -5 -2 -10 4 -10 5 0 13 5 16 10 3 6 2 10 -4 10 -5 0
-13 -4 -16 -10z"/>
<path d="M6974 251 c3 -5 15 -7 26 -4 28 7 25 13 -6 13 -14 0 -23 -4 -20 -9z"/>
<path d="M7038 223 c7 -3 16 -2 19 1 4 3 -2 6 -13 5 -11 0 -14 -3 -6 -6z"/>
<path d="M7250 180 c0 -5 5 -10 10 -10 6 0 10 5 10 10 0 6 -4 10 -10 10 -5 0
-10 -4 -10 -10z"/>
<path d="M6870 155 c0 -12 4 -14 17 -7 10 6 27 6 44 0 41 -14 132 -6 136 12 3
11 2 11 -4 3 -6 -8 -14 -9 -23 -3 -8 6 -50 10 -92 10 -64 0 -78 -3 -78 -15z"/>
<path d="M7182 159 c2 -7 10 -15 17 -17 8 -3 12 1 9 9 -2 7 -10 15 -17 17 -8
3 -12 -1 -9 -9z"/>
<path d="M62 8081 c-10 -6 -10 -10 3 -21 13 -11 15 -9 15 9 0 24 0 24 -18 12z"/>
<path d="M60 8030 c-13 -8 -12 -10 3 -10 9 0 17 5 17 10 0 12 -1 12 -20 0z"/>
<path d="M2525 7940 c3 -5 8 -10 11 -10 2 0 4 5 4 10 0 6 -5 10 -11 10 -5 0
-7 -4 -4 -10z"/>
<path d="M8224 7590 c0 -85 2 -120 3 -77 2 42 2 112 0 155 -1 42 -3 7 -3 -78z"/>
<path d="M987 7674 c-4 -4 -7 -14 -7 -23 0 -11 3 -12 11 -4 6 6 10 16 7 23 -2
6 -7 8 -11 4z"/>
<path d="M8218 7158 c-3 -90 -3 -251 1 -358 7 -183 8 -173 9 163 1 196 0 357
-1 357 -2 0 -6 -73 -9 -162z"/>
<path d="M8222 6450 c0 -14 2 -19 5 -12 2 6 2 18 0 25 -3 6 -5 1 -5 -13z"/>
<path d="M6801 5772 c-1 -7 -8 -20 -16 -28 -17 -18 -20 -34 -5 -34 13 0 32 49
26 64 -3 7 -5 6 -5 -2z"/>
<path d="M8120 5765 c7 -8 19 -15 27 -15 13 0 13 3 3 15 -7 8 -19 15 -27 15
-13 0 -13 -3 -3 -15z"/>
<path d="M340 1283 c-8 -15 -16 -32 -18 -36 -3 -5 6 -4 18 3 12 7 33 10 45 8
16 -4 22 -1 18 9 -3 7 -11 13 -19 13 -7 0 -17 7 -22 15 -7 13 -11 11 -22 -12z"/>
<path d="M435 1280 c-3 -5 -1 -10 4 -10 6 0 11 5 11 10 0 6 -2 10 -4 10 -3 0
-8 -4 -11 -10z"/>
<path d="M67 1265 c-4 -8 -2 -17 3 -20 6 -4 10 3 10 14 0 25 -6 27 -13 6z"/>
<path d="M240 1250 c0 -5 5 -10 10 -10 6 0 10 5 10 10 0 6 -4 10 -10 10 -5 0
-10 -4 -10 -10z"/>
<path d="M427 1233 c-3 -5 -22 -8 -41 -7 -27 2 -38 -2 -46 -16 -6 -11 -17 -20
-25 -20 -9 0 -15 -11 -16 -27 -1 -16 -3 -63 -5 -105 -2 -46 1 -78 6 -78 8 0
16 93 11 123 -1 5 4 7 10 5 12 -4 18 -82 19 -240 1 -73 10 -102 25 -78 4 6 10
8 15 5 4 -2 13 9 21 26 10 26 10 53 -2 155 l-14 123 23 4 c18 3 26 0 29 -14
11 -41 18 -16 16 57 -1 71 -13 109 -26 87z m11 -45 c-6 -18 -28 -21 -28 -4 0
9 7 16 16 16 9 0 14 -5 12 -12z m-99 -37 c-3 -6 -10 -7 -18 -2 -7 5 -10 14 -6
21 9 14 29 -2 24 -19z m51 9 c0 -5 -2 -10 -4 -10 -3 0 -8 5 -11 10 -3 6 -1 10
4 10 6 0 11 -4 11 -10z m40 -14 c0 -8 -4 -18 -10 -21 -5 -3 -10 3 -10 14 0 12
5 21 10 21 6 0 10 -6 10 -14z"/>
<path d="M283 1223 c-33 -6 -28 -23 7 -23 20 0 30 5 30 15 0 8 -3 14 -7 14 -5
-1 -18 -4 -30 -6z"/>
<path d="M840 1204 c0 -8 5 -12 10 -9 6 4 8 11 5 16 -9 14 -15 11 -15 -7z"/>
<path d="M250 1180 c-11 -7 -12 -12 -4 -17 7 -5 11 -27 9 -51 -1 -23 1 -45 5
-47 11 -7 16 42 10 87 -4 30 -8 36 -20 28z"/>
<path d="M210 1170 c0 -5 5 -10 10 -10 6 0 10 5 10 10 0 6 -4 10 -10 10 -5 0
-10 -4 -10 -10z"/>
<path d="M673 1104 c-45 -22 -200 -160 -190 -170 13 -14 80 27 159 95 51 44
99 81 106 81 6 0 12 5 12 10 0 17 -32 11 -87 -16z"/>
<path d="M160 1085 c0 -18 -12 -19 -28 -3 -9 9 -12 9 -12 0 0 -21 5 -27 20
-27 9 0 14 -8 12 -18 -2 -9 2 -17 8 -17 5 0 10 18 10 40 0 22 -2 40 -5 40 -3
0 -5 -7 -5 -15z"/>
<path d="M210 1045 c0 -18 5 -25 19 -25 21 0 32 -45 26 -110 -3 -22 0 -40 5
-40 6 0 10 6 11 13 0 6 4 3 9 -8 5 -11 9 -54 10 -95 0 -55 3 -70 11 -58 6 12
6 44 0 95 -5 42 -7 81 -5 85 3 4 -1 8 -8 8 -9 0 -14 20 -16 67 -1 37 -5 69 -7
71 -3 3 -11 -1 -20 -8 -13 -10 -15 -9 -15 9 0 11 -4 21 -10 21 -5 0 -10 -11
-10 -25z"/>
<path d="M60 1030 c0 -19 3 -21 12 -12 9 9 9 15 0 24 -9 9 -12 7 -12 -12z"/>
<path d="M115 1000 c-3 -5 -1 -10 4 -10 6 0 11 5 11 10 0 6 -2 10 -4 10 -3 0
-8 -4 -11 -10z"/>
<path d="M420 1000 c0 -5 7 -10 16 -10 8 0 12 5 9 10 -3 6 -10 10 -16 10 -5 0
-9 -4 -9 -10z"/>
<path d="M60 979 c0 -5 5 -7 10 -4 6 3 10 8 10 11 0 2 -4 4 -10 4 -5 0 -10 -5
-10 -11z"/>
<path d="M210 943 c1 -34 2 -36 14 -20 8 10 12 27 9 37 -9 33 -23 22 -23 -17z"/>
<path d="M291 954 c0 -11 3 -14 6 -6 3 7 2 16 -1 19 -3 4 -6 -2 -5 -13z"/>
<path d="M122 930 c0 -14 2 -19 5 -12 2 6 2 18 0 25 -3 6 -5 1 -5 -13z"/>
<path d="M60 840 c0 -19 3 -21 12 -12 9 9 9 15 0 24 -9 9 -12 7 -12 -12z"/>
<path d="M245 800 c-3 -5 1 -10 9 -10 9 0 16 5 16 10 0 6 -4 10 -9 10 -6 0
-13 -4 -16 -10z"/>
<path d="M375 770 c-3 -5 1 -10 10 -10 9 0 13 5 10 10 -3 6 -8 10 -10 10 -2 0
-7 -4 -10 -10z"/>
<path d="M21 684 c0 -11 3 -14 6 -6 3 7 2 16 -1 19 -3 4 -6 -2 -5 -13z"/>
<path d="M60 690 c0 -5 7 -10 15 -10 8 0 15 5 15 10 0 6 -7 10 -15 10 -8 0
-15 -4 -15 -10z"/>
<path d="M188 693 c6 -2 18 -2 25 0 6 3 1 5 -13 5 -14 0 -19 -2 -12 -5z"/>
<path d="M0 630 c0 -5 9 -10 21 -10 11 0 17 5 14 10 -3 6 -13 10 -21 10 -8 0
-14 -4 -14 -10z"/>
</g>
</svg>
