<?xml version="1.0" ?><svg id="Layer_1" style="enable-background:new 0 0 512 512;" version="1.1" viewBox="0 0 512 512" xml:space="preserve" xmlns="http://www.w3.org/2000/svg" xmlns:xlink="http://www.w3.org/1999/xlink"  fill="white" height="64" width="64"><g id="XMLID_4205_"><polygon id="XMLID_4229_" points="339.7,6 339.7,112.8 448.3,112.8  "/><path d="M367.6,338.6L367.6,338.6c0-49.1-39.8-88.9-88.9-88.9h-215v177.8h215   C327.8,427.5,367.6,387.7,367.6,338.6z M151.8,381.2c-5.7,4.3-13.2,6.5-22.4,6.5c-8.9,0-16.6-2.4-23.3-7.1   c-6.6-4.7-9.8-11.4-9.6-20l0.1-0.4h14.1c0,5.2,1.8,9.2,5.4,11.9c3.6,2.7,8,4,13.2,4c5.2,0,9.2-1.1,12-3.3c2.9-2.2,4.3-5.1,4.3-8.9   c0-3.6-1.3-6.6-3.9-9c-2.6-2.3-7.2-4.4-13.7-6.2c-9.4-2.6-16.7-6-21.8-10.2c-5.1-4.2-7.7-9.7-7.7-16.6c0-7,2.8-12.9,8.4-17.4   c5.6-4.6,12.8-6.8,21.6-6.8c9.5,0,17,2.5,22.7,7.6c5.7,5.1,8.4,11.3,8.2,18.8l-0.1,0.4h-14.1c0-4.6-1.5-8.3-4.6-11   c-3.1-2.7-7.1-4.1-12.2-4.1c-4.9,0-8.7,1.2-11.4,3.5c-2.7,2.3-4,5.3-4,9c0,3.4,1.5,6.1,4.4,8.3c2.9,2.2,7.8,4.3,14.5,6.2   c9.2,2.6,16.2,6.1,21,10.5c4.8,4.4,7.2,10.1,7.2,17C160.3,371.1,157.5,376.8,151.8,381.2z M212.1,386.4h-13.9L167,298.9h15.6   l20.8,63.7l1.6,6.4h0.4l1.5-6.2l20.9-63.9h15.6L212.1,386.4z M250,351.8v-18.3c0-10.6,3.2-19.2,9.7-25.9c6.4-6.7,14.7-10,24.9-10   c10.2,0,18.1,2.6,23.8,7.7c5.7,5.1,8.5,11.8,8.3,20.1l-0.2,0.4h-13.9c0-4.9-1.5-8.9-4.6-11.9c-3.1-3-7.5-4.5-13.2-4.5   c-6,0-10.9,2.3-14.6,6.8c-3.7,4.5-5.6,10.3-5.6,17.2v18.4c0,7.1,1.9,12.8,5.8,17.4c3.9,4.5,8.9,6.8,15.1,6.8   c4.7,0,8.4-0.5,11.1-1.6c2.7-1.1,4.8-2.4,6.2-3.9v-18.1h-18.3v-10.9h32.9v33c-2.4,3.4-6.2,6.4-11.5,9.1c-5.3,2.7-12.1,4-20.4,4   c-10.3,0-18.8-3.3-25.5-10S250,362.4,250,351.8z" id="XMLID_4329_"/><path d="M327.7,6.3H81v231.3h197.7c55.6,0,100.9,45.3,100.9,100.9c0,55.6-45.3,100.9-100.9,100.9H81V506h366.7   l0.6-381.2H327.7V6.3z" id="XMLID_4345_"/></g></svg>
